<svg width="35" height="35" viewBox="0 0 35 35" fill="none" xmlns="http://www.w3.org/2000/svg">
<path d="M23.7304 10.7595C21.8857 10.7595 17.3915 11.9165 17.2006 11.9635C17.1804 11.9682 17.1614 11.9762 17.1448 11.9869L17.1418 11.982C16.9432 11.2095 16.6335 10.4601 16.2195 9.75057C17.1198 9.43198 21.6536 7.90567 25.246 8.10202C27.0452 9.41592 27.4285 11.0151 27.4285 11.2806C27.4285 11.3423 27.4226 11.3991 27.4138 11.451C26.7691 11.1102 25.484 10.7595 23.7304 10.7595V10.7595ZM10.0642 7.67228C10.5063 7.10794 10.7853 6.75354 11.5079 6.17809C13.4055 4.6666 15.8876 3.64907 18.9131 3.10819C19.0291 3.08967 19.032 3.18105 19.032 3.18105L18.9424 5.12474C18.518 5.12474 18.1067 5.13462 17.7014 5.15561C18.0127 5.07905 18.305 4.91358 18.6267 4.84936C17.9613 4.98149 17.2887 5.04941 16.6733 5.23217C16.2489 5.27539 15.8376 5.33096 15.4396 5.39765C16.3194 5.06176 17.2402 4.69006 18.2477 4.47149C16.8686 4.7691 15.5659 5.08893 14.4262 5.60387C13.9858 5.70782 13.5532 5.83401 13.1308 5.98174C14.4703 5.19636 15.9977 4.49619 17.7557 4.07757C15.5865 4.59374 13.3394 5.47791 11.7958 6.54361C13.0295 5.51249 14.2647 4.76045 15.9316 4.18006C13.6023 4.98026 11.4859 6.22254 10.0642 7.67228V7.67228Z" fill="url(#paint0_linear_1106_450)"/>
<path d="M11.8674 6.9202C11.8674 6.8387 11.8895 6.78437 11.9306 6.75843C11.9952 6.71892 12.1098 6.73003 12.1582 6.73868C12.2948 6.79424 13.4654 7.27461 14.304 7.94391C16.228 9.48009 16.8213 12.0141 16.8272 12.0387L16.8301 12.0511C17.2326 13.2082 17.3486 13.8775 17.1856 14.101C17.1254 14.1837 17.0181 14.2047 16.8331 14.2319L16.8169 14.2356C16.4718 14.2875 16.0429 14.4109 15.5891 14.5406C15.3556 14.6073 15.1162 14.6764 14.8709 14.7407C14.4186 14.8592 14.3143 14.6876 14.1983 14.3912C14.1821 14.3504 14.1674 14.3122 14.1513 14.2788C12.4138 10.6668 11.8674 7.49442 11.8674 6.9202V6.9202ZM27.2358 11.7683L27.2064 11.7893C26.9891 11.9165 26.6498 11.8399 26.5631 11.8152C26.5855 11.7153 26.623 11.6182 26.6748 11.5263C26.9024 11.6053 27.0889 11.6868 27.2358 11.7683V11.7683ZM16.601 7.12149C15.8505 7.30795 15.2763 7.6105 15.2249 7.62531C15.2381 7.62161 15.8784 7.50306 16.6319 7.3166C17.3838 7.1289 18.7717 6.82882 19.3093 6.76708C18.76 6.82882 17.3501 6.93379 16.601 7.12149V7.12149ZM16.8904 7.39686C16.1399 7.58456 15.5671 7.88711 15.5142 7.90193C15.5259 7.89946 16.1692 7.77967 16.9197 7.59321C17.6717 7.40427 19.0596 7.10543 19.6001 7.04245C19.0493 7.10667 17.6394 7.2104 16.8904 7.39686ZM17.0431 7.70558C16.2941 7.89328 15.7198 8.19583 15.6684 8.21064C15.6816 8.20817 16.3234 8.08839 17.0754 7.90193C17.8274 7.71299 19.2153 7.41292 19.7543 7.35117C19.2035 7.41415 17.7936 7.51788 17.0431 7.70558ZM17.2605 8.01553C16.51 8.20324 15.9357 8.50454 15.8843 8.51936C15.8975 8.51689 16.5393 8.39834 17.2913 8.21064C18.0447 8.02171 19.4312 7.72287 19.9731 7.65989C19.4224 7.7241 18.0095 7.82907 17.2605 8.01553V8.01553ZM17.7202 8.22052C16.9711 8.40822 16.3969 8.71077 16.3455 8.72559C16.3572 8.72312 17.0005 8.60333 17.7525 8.41687C18.6338 8.20548 19.5281 8.03441 20.4314 7.9044C19.8806 7.96737 18.4707 8.03406 17.7202 8.22052ZM18.0403 8.55023C17.3677 8.72065 16.8522 8.99602 16.8066 9.00961C16.8169 9.00714 17.3941 8.89847 18.0697 8.72682C18.7438 8.55394 19.9893 8.32796 20.471 8.26992C19.979 8.32919 18.7145 8.37859 18.0403 8.55023ZM16.0429 6.92761C15.4599 7.06345 15.0148 7.28572 14.9752 7.2956C14.984 7.29313 15.4834 7.20793 16.0664 7.06962C16.651 6.93132 17.729 6.65717 18.1476 6.61148C17.7202 6.65841 16.6245 6.79054 16.0429 6.92761V6.92761ZM10.9906 11.12C10.7116 11.2744 10.5192 11.4584 10.5001 11.4682C10.5045 11.4658 10.7997 11.4732 11.0802 11.3188C11.3578 11.1632 11.819 10.7446 12.029 10.6631C11.6726 10.7983 11.3259 10.9508 10.9906 11.12V11.12ZM11.0068 10.71C10.7292 10.8644 10.5368 11.0471 10.5177 11.0583C10.5221 11.0558 10.8173 11.0632 11.0964 10.9088C11.3754 10.7532 11.8366 10.3346 12.0466 10.2531C11.6897 10.3883 11.3425 10.5408 11.0068 10.71V10.71ZM10.9466 10.2889C10.7028 10.4161 10.5339 10.5668 10.5177 10.5767C10.5207 10.5742 10.7806 10.5791 11.0244 10.4519C11.2697 10.3247 11.6736 9.98022 11.8572 9.91353C11.5459 10.0249 11.2419 10.1502 10.9466 10.2889V10.2889ZM10.8452 9.92835C10.6264 10.0395 10.4751 10.1704 10.4619 10.1778C10.4649 10.1766 10.6969 10.1815 10.9157 10.0704C11.136 9.96046 11.4988 9.65915 11.6633 9.60111C11.3836 9.69733 11.1105 9.80658 10.8452 9.92835V9.92835ZM10.9334 9.47515C10.7483 9.56283 10.622 9.66779 10.6088 9.67397C10.6117 9.67273 10.8071 9.67644 10.9906 9.58876C11.1757 9.49985 11.4797 9.26029 11.6178 9.2146C11.4768 9.26152 11.1169 9.38748 10.9334 9.47515V9.47515ZM10.9143 9.06394C10.7307 9.15162 10.6029 9.25658 10.5912 9.26276C10.5941 9.26152 10.788 9.26523 10.973 9.17755C11.1566 9.09111 11.4621 8.84907 11.5987 8.80462C11.4592 8.85031 11.0993 8.97627 10.9143 9.06394ZM11.2447 8.45268C11.1169 8.50825 11.0274 8.57493 11.0185 8.57864C11.0215 8.5774 11.1566 8.57987 11.2844 8.52554C11.4136 8.46873 11.6251 8.31561 11.722 8.28597C11.6251 8.31684 11.3725 8.39587 11.2447 8.45268ZM14.304 6.12494C14.1674 6.16569 14.069 6.2225 14.0602 6.22497C14.0617 6.22497 14.1953 6.24349 14.3319 6.20274C14.4685 6.16075 14.705 6.0348 14.8048 6.01628C14.702 6.0348 14.4406 6.08543 14.304 6.12494V6.12494ZM11.2051 11.4361C10.9275 11.5905 10.7336 11.7733 10.716 11.7844C10.7204 11.7819 11.0156 11.7893 11.2947 11.6337C11.5737 11.4794 12.0349 11.0607 12.2434 10.9792C11.8872 11.1146 11.5405 11.2672 11.2051 11.4361V11.4361ZM11.4122 11.7066C11.1331 11.8609 10.9407 12.0437 10.9216 12.0548C10.926 12.0523 11.2212 12.0597 11.5003 11.9041C11.7793 11.7498 12.2405 11.3299 12.4505 11.2497C12.0942 11.3851 11.7476 11.5376 11.4122 11.7066V11.7066ZM11.5135 12.0684C11.2947 12.1894 11.1434 12.3351 11.1287 12.3438C11.1316 12.3413 11.3637 12.3475 11.5825 12.224C11.8014 12.1005 12.1627 11.7695 12.3271 11.7053C12.0473 11.8122 11.7756 11.9335 11.5135 12.0684V12.0684ZM11.5238 12.529C11.3064 12.65 11.1551 12.7957 11.1404 12.8044C11.1434 12.8019 11.3754 12.8081 11.5928 12.6858C11.8131 12.5623 12.1744 12.2302 12.3389 12.1659C12.0586 12.2728 11.7864 12.3941 11.5238 12.529V12.529ZM11.4415 12.9958C11.2388 13.1378 11.1067 13.2971 11.0964 13.3057C11.0993 13.3045 11.3299 13.2872 11.5311 13.1464C11.7323 13.0032 12.0496 12.6401 12.2038 12.5611C11.9391 12.6924 11.6845 12.8376 11.4415 12.9958V12.9958ZM15.6743 6.69052C15.1926 6.80289 14.8239 6.98318 14.7916 6.99182C14.7989 6.98936 15.2117 6.91897 15.6934 6.80659C16.1766 6.69422 17.0681 6.46824 17.4132 6.43119C17.0607 6.46947 16.156 6.57814 15.6743 6.69052V6.69052ZM15.498 6.4633C15.1764 6.54974 14.9311 6.69052 14.9106 6.69792C14.9135 6.69545 15.1896 6.64112 15.5098 6.55344C15.8314 6.46577 16.4233 6.29042 16.6554 6.26078C16.4204 6.29165 15.8167 6.37562 15.498 6.4633V6.4633ZM18.3488 8.78733C17.6761 8.95774 17.1591 9.23559 17.1136 9.2467C17.1195 9.24547 17.2663 9.2183 17.4925 9.17014C18.3813 8.90063 19.2845 8.66616 20.1993 8.4675C19.6089 8.54653 18.829 8.66631 18.3488 8.78733V8.78733ZM20.5929 5.71497C20.3756 5.77054 20.2316 5.81499 20.2081 5.81746C20.214 5.81746 20.4784 5.80882 20.8646 5.78535C20.7747 5.76007 20.6841 5.7366 20.5929 5.71497V5.71497ZM24.7052 7.7241C24.1971 7.75251 23.8211 7.82413 23.7814 7.82413C23.7932 7.82413 24.3028 7.87105 24.9637 7.89946L24.7052 7.7241ZM23.6639 7.04739C23.1279 7.10914 22.7343 7.2141 22.6976 7.21781C22.7093 7.21657 23.2424 7.23016 23.9283 7.2104L23.6639 7.04739ZM22.5404 6.42749C22.0792 6.51393 21.7547 6.62013 21.7165 6.62507C21.7282 6.62383 22.1953 6.61025 22.8092 6.56456C22.7211 6.51763 22.6285 6.47194 22.5404 6.42749ZM23.028 6.6794C22.5522 6.76831 22.2129 6.87822 22.1762 6.88192C22.185 6.88069 22.6608 6.86834 23.2806 6.82018C23.1969 6.77202 23.1103 6.72509 23.028 6.6794ZM21.9059 6.14223C21.5725 6.21509 21.3493 6.28795 21.3185 6.29165C21.3273 6.29042 21.6709 6.2793 22.1556 6.24843C22.0736 6.21107 21.9903 6.17566 21.9059 6.14223V6.14223ZM24.25 7.41786C23.73 7.44502 23.3496 7.52035 23.3085 7.52035C23.3232 7.52035 23.8446 7.56851 24.5158 7.59568L24.25 7.41786ZM21.2891 5.91378C20.9616 5.98664 20.7471 6.05703 20.7119 6.06073C20.7236 6.0595 21.0791 6.04962 21.5784 6.01504C21.4826 5.9801 21.3861 5.94635 21.2891 5.91378V5.91378ZM18.8848 20.9088C18.8848 20.9088 19.086 20.7668 19.1903 20.7545C19.299 20.7397 19.1433 20.9088 18.8848 20.9088Z" fill="url(#paint1_linear_1106_450)"/>
<path d="M26.6307 14.9358C26.4933 14.7296 26.3649 14.5191 26.2459 14.3048C26.2057 14.2253 26.1665 14.1455 26.1284 14.0653H26.1255C25.9654 13.7886 25.7069 13.4355 25.7275 13.2095C25.751 12.9847 25.8141 12.9008 25.6673 12.8489C25.5233 12.7983 25.4235 12.7081 25.3838 12.7402C25.35 12.7723 25.1576 12.8242 25.1165 12.7723C25.0798 12.7205 24.9726 12.676 24.9124 12.6945C24.9124 12.6945 25.0328 12.818 24.8639 12.8884C24.695 12.9588 24.6436 12.9341 24.6348 12.9786C24.626 13.023 24.3968 13.0107 24.4306 13.0687C24.46 13.1268 24.5334 13.2292 24.4762 13.2354C24.2729 13.2917 24.077 13.3653 23.8916 13.4552C23.6963 13.5515 24.0238 13.4602 24.1986 13.4034C24.3733 13.3453 24.2529 13.5701 24.1325 13.6096C24.0062 13.6479 23.6155 13.8207 23.3893 13.8973C23.3893 13.8973 23.4099 13.6713 23.3409 13.6849C23.2718 13.6973 23.3409 13.5688 23.3893 13.5306C23.4319 13.4923 23.4319 13.4083 23.2513 13.4342C23.0677 13.4602 23.1044 13.5108 22.8386 13.5108C22.4789 13.5094 22.1283 13.4154 21.834 13.2416C21.834 13.2416 21.7914 13.2478 21.5902 13.2478C21.389 13.2478 21.3008 13.4787 21.527 13.4787C21.527 13.4787 21.6504 13.5565 21.4977 13.6195C21.3434 13.6849 21.3434 13.517 21.3434 13.517C21.3434 13.517 21.0218 13.517 20.6429 13.659C20.6429 13.659 20.8265 13.5306 20.9469 13.3885C20.9469 13.3885 20.6429 13.4021 20.3814 13.517C20.3814 13.517 21.1584 12.9637 22.5992 12.6822C22.5992 12.6822 22.3407 12.5797 21.6504 12.7205C21.6504 12.7205 22.1703 12.3858 23.0133 12.4377C23.0133 12.4377 22.5683 12.1549 22.5375 11.9882H21.9412C21.9412 11.9882 22.0043 11.8462 21.4991 11.9363C20.9939 12.0265 20.7192 12.0524 20.7192 12.0524C20.7192 12.0524 21.668 12.0005 21.1466 12.1549C20.6267 12.3093 19.0214 12.76 17.9038 13.2614C17.9038 13.2614 18.4252 13.1193 18.7306 13.1193C18.7306 13.1193 18.1182 13.4552 17.8436 13.6207L18.3326 13.596C18.3326 13.596 17.215 14.0974 18.0418 14.0072C18.0418 14.0072 16.9565 14.5604 17.8582 14.4061C17.8582 14.4061 16.742 14.9852 17.9801 14.6901C17.9801 14.6901 16.3426 15.4483 18.2093 14.9988C18.2093 14.9988 16.3279 15.7434 18.2548 15.3705C18.2548 15.3705 16.5423 16.1818 18.1167 15.8089C18.1167 15.8089 17.4896 16.0522 16.8463 16.6054C16.8463 16.6054 18.4854 15.9114 19.2491 15.8855C19.2491 15.8855 17.7642 16.3103 16.8331 17.1203C16.8331 17.1203 17.964 16.4905 19.3093 16.2584C19.3093 16.2584 16.8169 17.2364 16.0518 18.2651H16.0988C16.0988 18.2651 17.9023 16.6708 19.9056 16.5288C19.9056 16.5288 17.2003 17.2117 16.1428 18.6639L16.2486 18.7158C16.2486 18.7158 17.566 17.2488 19.7529 16.9536C19.7529 16.9536 17.4573 17.8538 16.5408 18.8442L16.6157 18.9615C16.6157 18.9615 17.7334 17.7526 19.7073 17.4043C19.7073 17.4043 17.2899 18.4713 16.6319 19.3221L16.7993 19.3987C16.7993 19.3987 18.1461 18.0477 19.4635 17.881C19.4635 17.881 17.7172 18.7047 17.1063 19.4505L17.212 19.5147C17.212 19.5147 17.9464 18.7936 19.0963 18.4602C19.0963 18.4602 18.13 18.9368 17.4118 19.7086L17.5498 19.7728C17.5498 19.7728 18.2842 19.2838 19.064 18.9368C19.064 18.9368 18.13 19.5604 17.9008 19.884L18.0844 19.9988C18.0844 19.9988 18.4971 19.7481 18.9891 19.6074C19.4782 19.4654 18.3767 20.1149 18.2225 20.2816L18.2856 20.3211C18.2856 20.3211 18.713 20.0569 19.1566 19.8642C19.5986 19.6716 19.3769 19.9087 18.6131 20.4878L18.7659 20.552C18.7659 20.552 20.167 19.9223 19.1859 20.6422C19.1859 20.6422 19.4327 20.8546 19.9379 20.4434C20.4431 20.0322 19.9379 20.7657 19.465 20.9966C18.9906 21.2288 19.8468 21.062 20.4255 20.6224C21.0071 20.1853 20.6722 20.7644 20.5489 20.8422C20.4255 20.92 20.1509 21.1114 20.1509 21.1114C20.1509 21.1114 20.7648 20.9929 21.2832 20.5953C21.8031 20.1952 21.436 20.6965 21.2832 20.799C21.1305 20.9027 21.0218 21.0312 20.6899 21.2127C20.6899 21.2127 21.223 21.1744 21.6974 20.7484C22.1703 20.3236 21.9412 20.9534 21.3904 21.2621C21.3904 21.2621 21.5285 21.4165 22.492 20.799C23.4554 20.1816 21.9867 21.3671 21.9867 21.3671C21.9867 21.3671 22.0587 21.5399 22.7387 21.0324C23.2895 20.62 22.6153 21.4053 22.6153 21.4053C22.6153 21.4053 22.7695 21.5338 23.2718 21.2374C23.7536 20.9546 23.4554 21.3535 23.3629 21.4177C23.2718 21.4844 23.8211 21.4844 24.037 21.2633C24.2514 21.0448 24.2661 21.3535 24.1604 21.4436C24.0546 21.5338 24.344 21.5338 24.648 21.3152C24.9549 21.0966 24.7258 21.4955 24.6818 21.535C24.6333 21.572 24.8169 21.6239 25.0489 21.4696C25.2781 21.3152 25.2325 21.5869 25.1238 21.6387C25.0152 21.6894 25.2325 21.7709 25.353 21.677C25.6232 21.4584 25.3794 21.8993 25.5101 21.9647C26.0212 21.7523 26.0814 21.5548 26.1446 21.2189C26.2019 20.9003 25.9727 20.3767 25.82 20.084C25.6217 20.0297 25.3662 20.1075 25.3662 20.1075C24.786 20.2878 25.2766 19.9791 25.1532 20.0038C25.0298 20.0297 24.6803 20.0692 24.8609 19.9531C25.0475 19.8371 25.1973 19.6827 25.1973 19.6827L25.2237 19.6889C25.2516 19.6776 25.2828 19.6738 25.3133 19.6778C25.7143 19.7234 25.9757 19.674 26.0961 19.5345C26.2165 19.3937 26.193 19.164 26.1299 18.9615C25.8494 18.7553 24.8683 18.5886 24.6465 18.5886C24.4203 18.5886 23.9298 18.7565 23.686 18.7565C23.4422 18.7565 23.4422 18.6392 23.5626 18.6022C23.686 18.5639 24.0825 18.4737 24.2661 18.3824C24.4497 18.2935 25.0489 18.191 25.2443 18.191C25.4455 18.191 25.6746 18.2935 25.8127 18.2935C25.9448 18.2935 26.1226 18.2935 26.2033 18.1638C26.2266 18.069 26.2235 17.971 26.1945 17.8773C26.1835 17.8527 26.1766 17.8269 26.174 17.8007C26.1079 17.8329 26.0241 17.9032 25.8406 17.9465C25.5644 18.0107 25.5821 17.8044 25.5821 17.8044C25.353 17.8822 25.444 17.5995 25.444 17.5995C25.1547 17.6884 25.3383 17.3673 25.3383 17.3673C24.9109 17.4562 25.2325 17.1104 25.2325 17.1104C24.5878 17.355 24.9109 16.9684 24.9109 16.9684C24.3719 17.0709 24.4629 16.8783 24.4629 16.8783C24.1589 16.9561 24.2368 16.7375 24.2368 16.7375C24.1428 16.7635 23.852 16.7635 23.9592 16.5572C24.0679 16.351 24.3117 16.3769 24.3117 16.3769C24.3263 16.5572 24.4982 16.493 24.6935 16.4794C24.8947 16.4671 25.0489 16.3769 25.0005 16.4288C24.8081 16.6461 25.2781 16.5189 25.3985 16.4288C25.5219 16.3387 25.748 16.351 25.7054 16.4029C25.4705 16.6659 25.795 16.5572 26.1152 16.4288C26.4398 16.2991 26.2841 16.5449 26.2841 16.5449C26.2841 16.5449 26.0858 16.6857 26.4075 16.5696C26.7688 16.4387 26.7688 16.6128 26.7629 16.6684C26.9759 16.6597 27.2769 16.6116 27.3372 16.4189C27.4223 16.1682 26.9435 15.4261 26.6307 14.9358V14.9358Z" fill="url(#paint2_linear_1106_450)"/>
<path d="M28.9631 5.79765C28.9182 5.75545 28.8741 5.71264 28.8309 5.66922H21.4155C21.5359 5.70997 21.6564 5.75319 21.7798 5.79765H28.9631ZM27.7691 4.71466L27.6119 4.585H20.4153L20.3757 4.71466H27.7691ZM29.3127 6.15947L29.1863 6.0298H22.3423C22.4333 6.07179 22.5288 6.11501 22.6198 6.15947H29.3127ZM28.1935 5.07648C28.1451 5.03204 28.0951 4.98881 28.0437 4.94682H20.2934L20.2479 5.07648H28.1935ZM26.2945 3.63168C26.2255 3.58723 26.1594 3.544 26.0904 3.50202H20.784L20.7414 3.63168H26.2945ZM25.7129 3.2711C25.6389 3.22733 25.5645 3.18411 25.4897 3.14144H20.9088L20.8662 3.2711H25.7129ZM26.8262 3.9935C26.7653 3.94895 26.7031 3.90571 26.6396 3.86384H20.6621L20.6195 3.9935H26.8262ZM27.3167 4.35285L27.1434 4.22442H20.5372L20.4946 4.35285H27.3167ZM31.479 9.04907C31.4552 9.00537 31.4302 8.96214 31.4041 8.91941H26.5765L26.6881 9.04907H31.479V9.04907ZM30.7813 7.96608L30.6903 7.83642H25.3722L25.5499 7.96608H30.7813ZM31.8829 9.77147L31.8138 9.64181H27.1155C27.1419 9.68626 27.1698 9.72948 27.1933 9.77147H31.8829ZM31.6875 9.41089L31.6126 9.28122H26.8658C26.8967 9.32444 26.9319 9.36767 26.9598 9.41089H31.6875V9.41089ZM29.9501 6.88187C29.9162 6.8377 29.8799 6.79485 29.8414 6.75344H23.7214L23.9358 6.88187H29.9501ZM29.6402 6.52128C29.6029 6.47748 29.5647 6.43425 29.5256 6.39162H23.0825L23.3204 6.52128H29.6402ZM30.5199 7.60427L30.423 7.47461H24.8522L25.0417 7.60427H30.5199V7.60427ZM30.2453 7.24368C30.211 7.19989 30.1758 7.15666 30.1395 7.11402H24.3074L24.5056 7.24368H30.2453V7.24368ZM31.2601 8.68848L31.1764 8.55882H26.2372C26.2798 8.60204 26.3239 8.64526 26.3635 8.68848H31.2601ZM33.1533 22.051C33.168 22.0078 33.1797 21.9646 33.19 21.9214H26.1388C26.0863 21.9698 26.0277 22.0133 25.964 22.051H33.1533ZM33.3398 21.3286C33.3515 21.2854 33.3604 21.2422 33.3692 21.199H26.4707L26.4619 21.257L26.4472 21.3299H33.3398V21.3286V21.3286ZM33.0475 22.4116C33.0622 22.3684 33.074 22.3264 33.0842 22.2832H25.4544C25.3275 22.3277 25.1992 22.3693 25.0696 22.4079L25.0491 22.4129H33.0475V22.4116ZM33.7731 16.9955L33.7672 16.8646H27.2124C27.0272 16.9194 26.8315 16.9446 26.6352 16.9387L26.6117 16.9955H33.7731ZM33.5469 14.6986H26.8438L26.9128 14.8073L26.9275 14.8283H33.5674L33.5469 14.6986V14.6986ZM25.0696 2.90928C24.987 2.86517 24.9038 2.82194 24.8199 2.77962H21.0307L20.9852 2.90928H25.0696V2.90928ZM28.38 23.728H24.3044C24.3068 23.7465 24.3078 23.765 24.3074 23.7836C24.3074 23.807 24.3103 23.8293 24.3191 23.8577H28.2611C28.2947 23.8108 28.3346 23.7673 28.38 23.728ZM29.1467 23.4551C29.2847 23.4551 29.4022 23.4711 29.5021 23.4971H32.6715L32.72 23.3662H24.2956C24.2927 23.4106 24.2956 23.4539 24.2956 23.4971H28.8192C28.9252 23.4691 29.0356 23.4549 29.1467 23.4551V23.4551ZM27.4283 24.4504H24.7377C24.7559 24.4688 24.776 24.4857 24.7979 24.501C24.8243 24.527 24.8581 24.5517 24.8948 24.5788H27.2154L27.4283 24.4504V24.4504ZM23.5216 2.18688L23.1912 2.05722H21.2863L21.2569 2.14736C21.254 2.15107 21.251 2.15477 21.251 2.15848L21.2393 2.18688H23.5216V2.18688ZM29.9383 23.728C29.9786 23.7672 30.0131 23.8103 30.0411 23.8564H32.5276C32.5452 23.8144 32.5643 23.7712 32.579 23.728H29.9383V23.728ZM24.35 2.5487L24.0694 2.41904H21.1585L21.1159 2.5487H24.35V2.5487ZM30.9385 8.19701H25.8407L25.9905 8.32667H31.0281C30.9987 8.28345 30.9708 8.24023 30.9385 8.19701ZM33.2649 13.3835C33.2561 13.3403 33.2443 13.297 33.234 13.255H26.8423C26.8364 13.26 26.8306 13.2662 26.8218 13.2711C26.8007 13.2877 26.7747 13.2992 26.7465 13.3042C26.7182 13.3092 26.6889 13.3076 26.6617 13.2995C26.5897 13.2785 26.4634 13.2625 26.4091 13.2946C26.3826 13.3118 26.3753 13.3501 26.3723 13.3847H33.2649V13.3835V13.3835ZM33.3236 13.6144H26.3621V13.6206C26.3591 13.6687 26.3562 13.7058 26.3591 13.7441H33.3559C33.3427 13.7008 33.3339 13.6576 33.3236 13.6144V13.6144ZM28.4491 5.3074H20.1701L20.1554 5.34568C20.3052 5.37285 20.4506 5.40372 20.5945 5.4383H28.5915C28.5448 5.39408 28.4973 5.35044 28.4491 5.3074V5.3074ZM33.7334 18.8009C33.7363 18.7589 33.7363 18.7157 33.7422 18.6724H26.3621C26.3826 18.7107 26.3988 18.7552 26.4164 18.8009H33.7334ZM33.613 19.8838L33.6306 19.7554H26.2916C26.229 19.8101 26.1541 19.8537 26.0713 19.8838H33.613V19.8838ZM33.6585 19.5245L33.6761 19.3948H26.4928C26.484 19.4387 26.4717 19.482 26.4561 19.5245H33.6585ZM33.5557 20.2469L33.5792 20.1172H26.1873C26.2078 20.1568 26.2269 20.2012 26.2475 20.2469H33.5557V20.2469ZM33.4955 20.6075L33.516 20.4778H26.3415L26.3841 20.6075H33.4955V20.6075ZM33.6982 19.1627C33.704 19.1207 33.707 19.0762 33.7099 19.033H26.481C26.4869 19.0762 26.4957 19.1195 26.4986 19.1627H33.6982ZM33.7525 18.4403L33.7613 18.3106H26.4869C26.4692 18.3561 26.445 18.3996 26.4149 18.4403H33.7525V18.4403ZM33.7789 17.7179C33.7819 17.6734 33.7819 17.6314 33.7819 17.587H26.4751C26.4751 17.6314 26.4781 17.6734 26.484 17.7166H33.7789V17.7179V17.7179ZM26.5383 18.0797H33.7701C33.7701 18.0365 33.7731 17.9933 33.776 17.95H26.5324C26.5383 17.9945 26.5412 18.0377 26.5383 18.0797ZM32.933 22.7734L32.9726 22.6438H24.5967C24.5498 22.6829 24.5084 22.7264 24.4733 22.7734H32.933V22.7734ZM26.6161 24.9406C26.6852 24.8999 26.7601 24.8567 26.8306 24.811H25.2899C25.4221 24.869 25.5704 24.916 25.732 24.9406H26.6161ZM27.8043 24.2182L28.0085 24.0886H24.4278C24.4542 24.1306 24.4851 24.1738 24.5189 24.2182H27.8043ZM33.4206 20.9681C33.4323 20.9236 33.4382 20.8816 33.447 20.8384H26.4443C26.4531 20.8816 26.459 20.9248 26.4649 20.9681H33.4206ZM22.5347 1.8263C22.1883 1.71258 21.837 1.60961 21.4816 1.51758L21.3729 1.8263H22.5347ZM33.2517 21.6892C33.2634 21.646 33.2752 21.604 33.2825 21.5608H26.3841C26.3635 21.6053 26.3474 21.6485 26.3239 21.6892H33.2517ZM32.8067 23.1353C32.8243 23.092 32.8375 23.0488 32.8522 23.0044H24.35C24.3346 23.047 24.3243 23.0909 24.3191 23.1353H32.8067V23.1353ZM33.7819 17.3561C33.7789 17.3128 33.7789 17.2709 33.7789 17.2276H26.5295C26.5177 17.2696 26.5089 17.3128 26.4986 17.3561H33.7819ZM33.4353 14.1059C33.4264 14.0627 33.4176 14.0194 33.4059 13.9762H26.4326C26.4502 14.0145 26.4693 14.0552 26.4957 14.1059H33.4353V14.1059ZM33.0651 12.6611C33.0534 12.6179 33.0417 12.5746 33.0255 12.5314H26.6396C26.6585 12.5757 26.6805 12.619 26.7057 12.6611H33.0651ZM32.8302 11.9387C32.8153 11.8951 32.7992 11.8519 32.7817 11.809H27.6104C27.578 11.8563 27.5385 11.8998 27.4929 11.9387H32.8302ZM32.9535 12.2993L32.9109 12.1708H26.5398C26.5425 12.214 26.5494 12.257 26.5603 12.2993H32.9535ZM32.698 11.5769L32.6466 11.4484H27.7382C27.7326 11.4917 27.7238 11.5346 27.7118 11.5769H32.698ZM32.2383 10.4939C32.2177 10.4506 32.2016 10.4074 32.1781 10.3642H27.4944C27.515 10.4087 27.5311 10.4519 27.5488 10.4939H32.2383ZM32.554 11.2163L32.5026 11.0866H27.7265C27.7353 11.1372 27.7412 11.1792 27.7441 11.2163H32.554ZM32.4028 10.8545C32.3847 10.8113 32.3656 10.7685 32.3455 10.726H27.6325C27.6472 10.7705 27.6618 10.8137 27.6721 10.8545H32.4028ZM32.0664 10.1321C32.0429 10.0901 32.0238 10.0468 32.0033 10.0036H27.3211L27.3872 10.1321H32.0664V10.1321ZM33.1709 13.0217C33.1591 12.9784 33.1445 12.9352 33.1342 12.8932H26.7909L26.8335 13.0217H33.1709ZM33.7363 16.2731L33.7275 16.1422H27.6383C27.6501 16.1891 27.6618 16.2323 27.6677 16.2731H33.7363ZM33.6673 15.5507C33.6644 15.5075 33.6556 15.4642 33.6497 15.4222H27.2961C27.3196 15.4667 27.3446 15.5099 27.371 15.5507H33.6673V15.5507ZM33.704 15.9113L33.6923 15.7828H27.49L27.5532 15.9113H33.704ZM33.7584 16.6337L33.7496 16.504H27.6428C27.6269 16.5497 27.6037 16.5933 27.5737 16.6337H33.7584ZM33.6218 15.1889L33.6042 15.0592H27.0729C27.1023 15.1036 27.1272 15.1469 27.1537 15.1889H33.6218ZM33.5043 14.4665L33.4808 14.338H26.6191L26.6969 14.4665H33.5043ZM9.53824 20.9681L9.54117 20.8384H7.94618L7.95205 20.9681H9.53824V20.9681ZM9.52061 19.8838L9.51033 19.7554H8.02843L8.00933 19.8838H9.52061ZM9.53971 20.2469L9.5353 20.1172H7.97996L7.96527 20.2469H9.53971V20.2469ZM9.4604 22.4116L9.46774 22.2832H7.87128C7.86834 22.3252 7.86099 22.3684 7.85512 22.4116H9.4604ZM9.48243 22.051L9.48389 22.0239L9.48977 21.9214H7.9124L7.89918 22.051H9.48243V22.051ZM9.52502 21.3286L9.53089 21.199H7.95499L7.95205 21.3286H9.52502ZM9.50446 21.6892L9.5118 21.5608H7.9403L7.93149 21.6892H9.50446ZM9.54411 20.6075V20.4778H7.94618L7.9403 20.6075H9.54411ZM9.48683 19.5245L9.46774 19.3948H8.08717L8.06514 19.5245H9.48683V19.5245ZM8.90229 17.7179L8.81711 17.5882H8.45288L8.4235 17.7179H8.90229ZM8.64234 17.3561L8.53806 17.2276H8.53659C8.52743 17.2706 8.51715 17.3134 8.50575 17.3561H8.64234ZM9.09763 18.0797C9.07698 18.0362 9.05543 17.9929 9.03301 17.95H8.3721L8.34566 18.0797H9.09763ZM9.2445 18.4403L9.19603 18.3106H8.29573L8.26929 18.4403H9.2445ZM9.43249 19.1627L9.40605 19.033H8.15179L8.1283 19.1627H9.43249ZM9.35318 18.8009L9.31793 18.6724H8.22229L8.19586 18.8009H9.35318ZM12.5799 25.3012C12.5975 25.2592 12.6137 25.216 12.6284 25.1728H6.83438C6.79928 25.216 6.76354 25.2588 6.72717 25.3012H12.5799ZM11.3947 26.0236C11.4385 25.9769 11.4871 25.9335 11.5401 25.894H6.2146L6.10004 26.0236H11.3947ZM11.2816 26.3854C11.2698 26.343 11.2674 26.299 11.2742 26.2558H5.89442L5.78133 26.3854H11.2816ZM11.9572 25.663C12.0453 25.626 12.1158 25.5988 12.151 25.5865C12.1837 25.5751 12.22 25.573 12.2542 25.5806C12.2884 25.5882 12.3187 25.605 12.3405 25.6285C12.3493 25.6384 12.3566 25.6519 12.3625 25.6618H12.3963C12.4241 25.6196 12.4496 25.5763 12.4727 25.5322H6.53036C6.49512 25.5754 6.45546 25.6186 6.41874 25.6618H11.9572V25.663ZM9.32675 27.4684C9.42543 27.4265 9.52335 27.3832 9.62048 27.3388H4.97355C4.94046 27.3816 4.90815 27.4248 4.87662 27.4684H9.32675ZM4.73122 27.7006C4.72968 27.7062 4.7272 27.7116 4.72388 27.7166L4.92802 27.971H7.43948C7.67007 27.8549 7.92415 27.7685 8.16942 27.7006H4.73122ZM10.111 27.1078L10.371 26.9782H5.26729L5.16008 27.1078H10.111ZM10.8145 26.746L11.051 26.6176H5.57718L5.4641 26.746H10.8145ZM9.46627 23.4971C9.45886 23.4536 9.45299 23.41 9.44865 23.3662H7.68181C7.673 23.4106 7.66272 23.4526 7.65097 23.4971H9.46627ZM9.56908 23.8564C9.55292 23.8144 9.53677 23.7725 9.52208 23.728H7.59076L7.55257 23.8564H9.56908ZM10.9482 24.9406C10.8207 24.9052 10.6965 24.8619 10.5766 24.811H7.11637C7.087 24.853 7.05468 24.895 7.01944 24.9406H10.9482ZM9.43543 23.1353V23.1279L9.4369 23.0031H7.75819L7.73175 23.134H9.43543V23.1353V23.1353ZM9.44277 22.7734L9.44865 22.6438H7.82134L7.79931 22.7734H9.44277ZM10.1551 24.5788C10.0976 24.5389 10.0431 24.4961 9.99206 24.4504H7.3308L7.26471 24.5788H10.1551ZM9.77616 24.2182C9.74403 24.1762 9.71414 24.1329 9.68657 24.0886H7.47767C7.46193 24.1319 7.44578 24.1751 7.4292 24.2182H9.77616V24.2182ZM10.3225 24.238C10.9555 24.7702 12.0938 24.7678 12.5814 24.7678H12.7341L12.7473 24.6912H12.7179C12.1011 24.6912 10.9805 24.6196 10.4048 24.1343C10.283 24.0335 10.1871 23.9128 10.1229 23.7796C10.0588 23.6464 10.0277 23.5036 10.0317 23.36C10.0317 22.834 10.3534 22.3153 10.7587 21.6596C11.2243 20.9076 11.8044 19.969 12.1011 18.665C12.3023 17.771 12.4213 15.4642 12.4551 14.7394L12.082 15.0345C12.223 15.195 11.9366 15.2753 11.9366 15.2753C12.1202 15.2951 11.7765 15.5457 11.7765 15.5457C12.0747 15.7199 11.662 15.7767 11.662 15.7767C11.8911 15.9508 11.4328 16.0471 11.4328 16.0471C12.2347 16.4916 11.3403 16.3373 11.3403 16.3373C11.9836 16.7226 11.2478 16.588 11.2478 16.588C11.731 16.8386 11.1112 16.9152 11.1112 16.9152C12.0291 17.3005 11.0657 17.2054 11.0657 17.2054C11.9836 17.7253 10.9276 17.5141 10.9276 17.5141C12.3493 18.1316 10.8131 17.8426 10.8131 17.8426C12.2817 18.4218 10.6295 18.1711 10.6295 18.1711C12.3743 19.0009 10.3989 18.4415 10.3989 18.4415C12.292 19.5257 10.5369 18.8663 10.5369 18.8663C11.8455 19.8122 10.675 19.2911 10.675 19.2911C11.6385 20.2555 10.3078 19.4652 10.3078 19.4652C11.6164 20.5655 10.3989 19.9666 10.3989 19.9666C11.4328 20.9668 10.2388 20.2518 10.2388 20.2518C11.2023 21.0619 10.3534 20.7532 10.3534 20.7532C10.697 21.3323 10.1698 21.1385 10.1698 21.1385C10.628 21.6213 10.0787 21.583 10.0787 21.583C10.5619 22.1029 9.94066 21.9683 9.94066 21.9683C10.1727 22.3746 9.97297 22.4166 9.8731 22.4166C9.85988 22.6697 9.84813 22.908 9.84813 23.1266C9.8496 23.5996 10.0082 23.9737 10.3225 24.238V24.238ZM29.7547 24.2392C29.7347 24.2249 29.72 24.206 29.7121 24.1849C29.7092 24.1726 29.5917 23.8947 29.0865 23.8947C28.8574 23.8947 28.8574 24.1269 29.0409 24.1269C29.2245 24.1269 29.8443 24.3393 29.11 24.3393C28.8574 24.3393 28.9954 24.4739 29.1335 24.4739L29.2862 24.4788C29.5623 24.5171 29.6137 24.3726 29.7547 24.2392V24.2392ZM29.436 26.0915C30.1939 26.0508 30.8841 25.7581 31.4922 25.2222C31.2117 25.2975 30.893 25.3074 30.893 25.3074C31.1191 25.2308 31.0046 25.0184 31.0046 25.0184C30.7064 25.1345 30.3848 25.095 30.3848 25.095C30.5684 25.0184 30.6139 24.9024 30.6139 24.9024C30.4068 24.9987 30.0866 24.9789 30.0866 24.9789C30.2702 24.8826 30.2012 24.7085 30.2012 24.7085C30.0411 24.7468 29.765 24.7282 29.765 24.7282C29.9971 24.6319 29.8561 24.4776 29.8561 24.4776C29.5124 24.7283 28.8001 24.69 28.8001 24.69C28.9198 24.8036 29.0829 24.8787 29.2612 24.9024C29.1438 24.9406 28.9837 25.0184 28.9837 25.0184C29.0777 25.0567 29.3273 25.1148 29.3273 25.1148C28.9396 25.2111 28.662 25.1913 28.662 25.1913C29.0982 25.3654 29.718 25.3074 29.718 25.3074C29.3082 25.5 28.7105 25.442 28.7105 25.442C29.1438 25.6544 29.4904 25.5396 29.4904 25.5396C29.0968 25.6927 28.9822 25.6927 28.9822 25.6927C29.2598 25.789 29.602 25.847 29.602 25.847C28.615 26.0397 27.7235 25.7705 27.7235 25.7705L27.7926 25.8273C28.2655 25.9977 28.8339 26.1249 29.436 26.0915V26.0915ZM30.6844 24.5171C30.6844 24.5171 31.078 24.3813 31.3042 24.3998C31.3027 24.401 31.0046 24.1306 30.6844 24.5171ZM31.1882 24.5936C31.1882 24.5936 31.3262 24.5171 31.4657 24.5936C31.6023 24.6714 31.1882 24.5936 31.1882 24.5936ZM25.9112 26.2336C25.9112 26.2336 26.1873 26.1755 26.3474 26.1953C26.3474 26.1953 26.1432 25.9631 25.9112 26.2336ZM26.3694 26.6386C26.2255 26.6213 25.9508 26.7078 25.8363 26.7102C25.7584 26.6658 25.7819 26.6324 25.8157 26.6127C25.8656 26.5867 25.923 26.5726 25.9817 26.5719C26.1432 26.5657 26.3356 26.6608 26.3694 26.6386V26.6386ZM26.39 27.0832C26.2666 27.0683 25.989 27.1819 25.7584 27.1869C25.5631 27.1511 25.5602 27.1116 25.5954 27.0967C25.6659 27.0596 25.7472 27.0395 25.8304 27.0387C26.0228 27.035 26.318 27.1251 26.39 27.0832ZM26.4091 27.5265C26.3004 27.5141 26.0243 27.6561 25.6806 27.6611C25.3678 27.6339 25.3428 27.5907 25.3678 27.5796C25.3927 27.5685 25.5058 27.5042 25.6718 27.5042C25.9024 27.5018 26.3004 27.5907 26.4091 27.5265V27.5265ZM26.4296 27.9698C26.34 27.9599 26.0654 28.1291 25.6057 28.1377C25.1695 28.118 25.124 28.0735 25.1475 28.0612C25.168 28.0513 25.3046 27.971 25.5205 27.9698C25.7819 27.9686 26.2857 28.0562 26.4296 27.9698V27.9698ZM26.4502 28.4143C26.3811 28.4057 26.1036 28.6033 25.5322 28.6132C24.9756 28.602 24.9036 28.5551 24.9242 28.5452C24.9389 28.5378 25.1078 28.4378 25.3633 28.4378C25.6586 28.4366 26.2725 28.5218 26.4502 28.4143V28.4143ZM26.4693 28.8577C26.4149 28.8515 26.1418 29.0762 25.4515 29.0898C24.7773 29.0849 24.6863 29.0367 24.6995 29.0293C24.7113 29.0231 24.9066 28.9046 25.2077 28.9046C25.5381 28.9034 26.2578 28.9886 26.4693 28.8577ZM26.4898 29.3022C26.4561 29.2973 26.1799 29.5492 25.3766 29.5652C24.582 29.569 24.4675 29.5171 24.4792 29.5109C24.4851 29.5084 24.7054 29.3714 25.0535 29.3714C25.4206 29.3701 26.2402 29.4529 26.4898 29.3022V29.3022ZM26.5133 29.7455C26.4928 29.7431 26.2181 30.0259 25.3002 30.0419C24.3881 30.053 24.2501 29.9975 24.253 29.995C24.2589 29.9937 24.5056 29.8382 24.8978 29.8382C25.3002 29.8382 26.2255 29.9184 26.5133 29.7455ZM24.0283 30.4791C24.0283 30.4791 24.3059 30.3049 24.7392 30.3049C25.1754 30.3049 26.2078 30.3815 26.5295 30.1889C26.5295 30.1889 26.2563 30.4976 25.2238 30.5173C24.1899 30.5371 24.0283 30.4791 24.0283 30.4791V30.4791ZM24.0753 30.9853C24.0753 30.9853 24.3514 30.8112 24.7891 30.8112C25.2253 30.8112 26.2313 30.7483 26.5765 30.6964C26.5765 30.6964 26.3004 31.0039 25.2679 31.0236C24.2383 31.0434 24.0753 30.9853 24.0753 30.9853V30.9853ZM23.6611 31.5238C23.6611 31.5238 23.9167 31.3645 24.3206 31.3645C24.7245 31.3645 25.663 31.3077 25.9787 31.2595C25.9787 31.2595 25.7232 31.541 24.7685 31.5583C23.8139 31.5756 23.6611 31.5238 23.6611 31.5238ZM22.6668 26.7794C21.3648 27.1333 20.0051 27.3141 18.6368 27.3153C14.8534 27.3153 12.5902 27.035 11.7148 26.4571C11.5797 26.3682 11.5885 26.3101 11.5929 26.2891C11.6106 26.1817 11.7956 26.0545 11.9968 25.9557C12.0055 26.007 12.0243 26.0567 12.0526 26.1027C12.4506 26.7794 14.683 27.1214 18.6823 27.1214C20.3169 27.1214 21.6314 26.977 22.6668 26.7794V26.7794ZM13.9105 14.5356C13.7886 14.6109 13.652 14.9024 13.9942 14.6924C13.9654 14.6395 13.9394 14.5855 13.9164 14.5307L13.9105 14.5356ZM13.9561 15.1135C14.0471 14.9715 13.9399 14.9209 13.8488 15.0234C13.761 15.1124 13.6893 15.2119 13.6359 15.3185L13.63 15.3284C13.7446 15.2839 13.8753 15.2395 13.9561 15.1135Z" fill="url(#paint3_linear_1106_450)"/>
<path d="M15.6243 17.0562C15.4554 17.0438 15.6389 16.966 15.7006 16.9277C15.7608 16.8895 15.6845 16.8376 15.5626 16.8376C15.4407 16.8376 15.4554 16.7351 15.5317 16.6573C15.6081 16.5807 15.5626 16.477 15.4084 16.5548C15.2556 16.6314 15.0882 16.5165 15.2718 16.3622C15.4554 16.2066 15.2409 16.2584 15.2556 16.1819C15.2718 16.1041 15.2101 15.9757 15.119 16.0139C15.0265 16.0522 14.9208 16.2066 14.9354 16.3103C14.9501 16.4128 14.7519 16.5425 14.323 16.6968C13.8941 16.8512 14.1247 16.6832 14.2613 16.5807C14.3994 16.477 14.4449 16.2967 14.323 16.0658C14.2011 15.8336 14.1394 15.6805 13.9867 15.7052C13.8339 15.7312 13.7561 15.809 13.6357 15.8855C13.5123 15.9633 13.4212 15.8979 13.574 15.7571C13.7267 15.6163 13.8648 15.5768 13.8795 15.4866C13.8941 15.3965 13.8192 15.3965 13.7267 15.4731C13.6357 15.5496 13.4976 15.7188 13.4976 15.6163C13.4976 15.5484 13.4844 15.4768 13.5093 15.42C13.4624 15.4311 13.4198 15.4212 13.4051 15.3842C13.3742 15.3076 13.4212 15.2557 13.4506 15.1915C13.4814 15.1261 13.314 15.1014 13.3434 14.9717C13.3742 14.8445 13.5725 14.6124 13.665 14.5358C13.7267 14.4827 13.7884 14.395 13.8427 14.3555C13.8386 14.3472 13.8342 14.3389 13.8295 14.3308C13.6929 14.421 13.4814 14.5716 13.4506 14.4432C13.4212 14.3148 13.5725 14.2641 13.6812 14.1863C13.7017 14.1711 13.7209 14.1546 13.7385 14.1369L13.6019 13.8418L13.0966 14.2357C13.1554 14.2839 13.173 14.3716 12.9762 14.5074C12.9762 14.5074 13.1569 14.7062 12.9219 14.8816L12.9233 14.8964L12.9292 14.9557C12.9997 15.0421 13.1172 15.2125 12.9689 15.2644L12.9718 15.2767C13.0247 15.3249 13.27 15.562 13.0555 15.6657C13.3096 16.6215 13.8736 17.2846 14.7665 17.681C15.263 17.9058 15.498 17.8984 15.6066 17.8527C15.6452 17.835 15.6784 17.8101 15.7036 17.7798L15.8123 17.5242L15.8152 17.5081C15.8185 17.4923 15.8255 17.4772 15.8358 17.4637C15.8328 17.4242 15.7814 17.0685 15.6243 17.0562V17.0562Z" fill="url(#paint4_linear_1106_450)"/>
<path d="M16.855 26.6263C16.7552 26.6905 16.6788 26.7486 16.8932 26.7548C17.1077 26.7609 17.2986 26.672 17.4381 26.5757C17.5762 26.4781 17.6893 26.5547 17.582 26.6004C17.4763 26.6461 17.4455 26.7745 17.5527 26.7609C17.6599 26.7486 17.7744 26.7165 18.0109 26.5806C18.2488 26.446 18.2415 26.5806 18.1328 26.6572C18.0271 26.7338 17.9962 26.7807 18.0873 26.7597C18.1798 26.7412 18.7247 26.4646 18.9538 26.3423C19.1829 26.2201 19.0052 26.2583 18.8906 26.2707C18.7761 26.283 18.8143 26.2201 18.8906 26.1546C18.9685 26.0904 19.039 26.0583 19.1506 25.9422C19.2652 25.8261 18.8069 25.936 18.6307 25.9867C18.4544 26.0385 18.4089 25.9941 18.5235 25.899C18.638 25.8027 19.2975 25.5174 19.4811 25.3766C19.6646 25.2359 19.5442 25.1704 19.3577 25.2816C19.0273 25.4627 18.6878 25.6316 18.3399 25.7879C18.1328 25.878 17.9903 25.8027 18.1563 25.7175C18.3252 25.6335 18.7687 25.4211 18.9597 25.2803C19.1506 25.1383 19.108 25.0926 18.9362 25.1507C18.7687 25.2087 18.3854 25.389 18.1563 25.4149C17.9272 25.4409 17.9815 25.3692 18.1813 25.2865C18.381 25.2038 19.2226 24.7851 19.6426 24.5802C20.0612 24.3739 19.8086 24.3801 19.7028 24.432C19.5971 24.4838 18.5484 24.9333 18.3267 24.9975C18.1064 25.0617 18.1578 24.9654 18.2899 24.8815C18.4207 24.7987 19.8262 24.1294 19.9584 24.038C20.0876 23.9504 20.0186 23.9355 19.8952 23.9738C19.7748 24.0121 18.6792 24.4888 18.4794 24.5332C18.2811 24.5789 18.3193 24.4826 18.4559 24.4048C18.5925 24.327 19.7351 23.7219 19.8776 23.6404C20.0274 23.5564 19.9687 23.4404 19.8027 23.5293C19.6338 23.6194 18.1813 24.2369 18.0124 24.3085C17.8449 24.3789 17.7671 24.3208 17.8831 24.2504C17.9977 24.1788 19.6646 23.3552 19.8262 23.2477C19.9863 23.1378 19.8497 23.1057 19.6793 23.1576C19.5104 23.2082 18.2944 23.7553 18.1651 23.8256C18.0344 23.8985 18.0124 23.8195 18.1049 23.7231C18.196 23.6268 19.4576 23.0291 19.578 22.9254C19.7014 22.8229 19.6925 22.7649 19.4752 22.8427C19.2519 22.9192 18.3942 23.2984 18.2562 23.3502C18.1181 23.4021 18.005 23.3823 18.149 23.3058C18.2944 23.2292 19.3122 22.7192 19.4267 22.6167C19.5442 22.5142 19.5501 22.4302 19.3724 22.5142C19.1976 22.5969 18.1739 22.9835 18.0065 23.0082C17.8361 23.0341 17.7906 23.0156 17.9507 22.9439C18.1108 22.8723 18.9318 22.4809 19.0155 22.4092C19.1007 22.3376 19.1095 22.2499 18.9788 22.3265C18.8466 22.4043 18.1064 22.655 17.9521 22.713C17.8009 22.7698 17.723 22.6216 17.8993 22.5772C18.077 22.5327 18.4574 22.3586 18.6645 22.2425C18.8715 22.1252 18.5734 21.9709 18.45 22.0437C18.3281 22.1141 17.9228 22.2499 17.7083 22.345C17.4939 22.4413 17.3955 22.3648 17.5027 22.3055C17.6085 22.2499 18.121 22.0289 18.2048 21.9919C18.2914 21.9536 18.0829 21.8116 18.03 21.7918C17.9756 21.772 17.6775 21.9338 17.5629 21.9721C17.4484 22.0116 17.3265 21.9659 17.3794 21.9153C17.4727 21.8485 17.5759 21.7921 17.6863 21.7474C17.7627 21.7152 17.7774 21.6374 17.8082 21.5609C17.8376 21.4843 18.0373 21.535 18.1357 21.4794C18.2371 21.4201 18.2664 21.4127 18.359 21.325C18.45 21.2336 18.2048 21.2411 18.1445 21.2855C18.0829 21.33 17.9154 21.4016 17.8611 21.4399C17.8082 21.4794 17.6481 21.4139 17.5483 21.3818C17.4484 21.3497 17.3647 21.2719 17.3485 21.2213C17.3338 21.1707 17.3794 21.0287 17.4572 20.9768C17.5361 20.928 17.6029 20.8667 17.654 20.7965C17.6863 20.7385 17.5938 20.7138 17.5174 20.7323C17.441 20.7508 17.3191 20.8669 17.2736 20.9249C17.2266 20.983 17.0048 20.8484 16.9593 20.7841C16.9123 20.7199 17.0122 20.7125 17.1032 20.7002C17.1958 20.6878 17.3647 20.5779 17.441 20.5149C17.5174 20.4507 17.5629 20.4384 17.5174 20.3668C17.4704 20.2964 17.3794 20.2964 17.303 20.3421C17.194 20.4139 17.094 20.495 17.0048 20.5841C16.9755 20.6236 16.8976 20.7002 16.8213 20.694C16.7449 20.6878 16.7919 20.5594 16.7684 20.5088C16.7449 20.4569 16.6905 20.4125 16.6142 20.4125C16.5393 20.4125 16.4996 20.4125 16.4923 20.347C16.4835 20.2828 16.4702 20.2062 16.5466 20.2062C16.6215 20.2062 16.6377 20.1544 16.6538 20.0716C16.667 19.9889 16.3777 19.9889 16.294 19.9889C16.2088 19.9889 16.2543 19.9383 16.2778 19.8654C16.2999 19.795 16.1853 19.8345 16.1721 19.7839C16.1559 19.7308 16.1324 19.4171 16.1559 19.364C16.1794 19.3122 16.2323 19.3332 16.2867 19.3122C16.3395 19.2937 16.3777 19.2356 16.3924 19.2035C16.4086 19.1714 16.316 19.1134 16.2705 19.1084C16.225 19.0998 16.1941 19.1134 16.1633 19.1393C16.1324 19.1652 16.0943 19.2554 16.0943 19.2554C15.9959 19.306 15.896 19.2751 15.896 19.2233C15.896 19.1714 15.896 19.1467 15.965 19.1084C16.034 19.0689 15.9562 19.0306 15.9327 18.9788C15.9107 18.9281 15.8651 18.9084 15.7579 18.9084C15.6507 18.9084 15.6434 18.7997 15.5362 18.7281C15.4289 18.6577 15.6125 18.6577 15.7888 18.6577C15.965 18.6577 15.8431 18.5342 15.7432 18.4255C15.6449 18.3227 15.5331 18.2295 15.4099 18.1477C15.1954 18.1378 14.9369 18.0637 14.6197 17.9217L14.6079 17.9143C14.0792 17.9822 12.8999 18.7454 12.6561 18.9108V19.064C12.966 18.9244 13.8692 18.5083 14.044 18.4651C14.2511 18.4132 14.3656 18.4972 14.1292 18.549C13.9162 18.5935 12.9821 19.1591 12.6561 19.3381L12.6575 19.5345C12.8705 19.3974 13.6489 18.9615 13.7546 18.9084C13.8692 18.8503 14.2437 18.9788 13.9221 19.017C13.6048 19.0553 12.8764 19.6086 12.659 19.7209L12.6634 19.9296C12.8661 19.8382 13.3845 19.5122 13.6004 19.4542C13.8384 19.39 13.8075 19.4801 13.6695 19.5443C13.3254 19.7428 12.9922 19.9542 12.6707 20.1778L12.6766 20.3272C12.8499 20.2334 13.2112 20.0321 13.3184 19.9827C13.4403 19.9234 13.5329 19.9679 13.4168 20.0346C13.3023 20.0976 12.8441 20.5162 12.6987 20.6063L12.6913 20.6113L12.706 20.7977C12.8191 20.7323 12.9557 20.6335 13.0893 20.5211C13.2568 20.3803 13.3948 20.5088 13.2641 20.5792C13.1481 20.6409 12.8896 20.941 12.7339 21.0743L12.7427 21.1423L12.7559 21.2336C12.8984 21.1583 13.079 21.0558 13.173 21.0027C13.2949 20.9323 13.433 20.92 13.3405 20.9904C13.1519 21.1514 12.9716 21.3191 12.8 21.493L12.8294 21.6535C13.0585 21.5189 13.386 21.3164 13.4785 21.2472C13.6166 21.1447 13.7076 21.2336 13.5931 21.3114C13.5064 21.3719 13.1172 21.6881 12.872 21.8881L12.9131 22.1203C12.9895 22.0746 13.0673 22.0227 13.1422 21.9684C13.2641 21.8782 13.3258 21.9746 13.2186 22.0647C13.1248 22.1476 13.0352 22.2337 12.9498 22.3228L12.988 22.555C13.1451 22.4537 13.3801 22.2327 13.5167 22.1289C13.6768 22.0067 13.7546 22.0524 13.646 22.1425C13.5608 22.2154 13.2054 22.534 13.0115 22.7068L13.0379 22.8785C13.1995 22.7896 13.5725 22.5821 13.6944 22.5031C13.831 22.4129 13.9397 22.471 13.7855 22.5673C13.6606 22.6451 13.2773 23.0057 13.0776 23.1946L13.0967 23.3947C13.3008 23.2625 13.8472 22.9316 13.9691 22.8563C14.1071 22.7735 14.1453 22.8192 14.0543 22.8945C13.7447 23.1389 13.4309 23.3793 13.1128 23.6157L13.1216 23.8182C13.3522 23.6849 13.947 23.286 14.0543 23.1909C14.1762 23.081 14.2378 23.1835 14.1453 23.2749C14.0645 23.3527 13.3581 23.8479 13.1231 24.0306C13.1231 24.0948 13.1216 24.1603 13.1187 24.2245C13.3596 24.1072 13.8707 23.7577 14.0689 23.6404C14.3069 23.4984 14.2907 23.5947 14.16 23.7034C14.0454 23.7997 13.4022 24.2443 13.1025 24.448C13.0955 24.5331 13.0852 24.6179 13.0717 24.7024L13.0849 24.6975C13.3214 24.574 13.9485 24.2727 14.1321 24.1109C14.3157 23.9516 14.3847 24.0664 14.2232 24.1763C14.0851 24.2702 13.3434 24.7555 13.013 24.9765C12.9924 25.0605 12.9689 25.1445 12.9425 25.226C13.1921 25.0679 14.1027 24.5345 14.2701 24.3999C14.4449 24.2603 14.5301 24.348 14.3759 24.4715C14.2481 24.574 13.2024 25.3803 12.7383 25.694C12.6884 25.7792 12.6355 25.8632 12.5753 25.9422L12.5415 25.9842C12.7824 25.8484 13.6606 25.2457 13.8868 25.1223C14.1321 24.9877 14.1394 25.0704 14.0175 25.1531C13.8971 25.2359 12.8 26.0904 12.6399 26.2201C12.684 26.2423 12.7324 26.2645 12.7868 26.2867C13.0159 26.1225 14.1894 25.3198 14.3686 25.2112C14.558 25.0951 14.5668 25.2322 14.4523 25.2951C14.3451 25.3544 13.2509 26.1509 12.9792 26.3547C13.0394 26.3769 13.104 26.3942 13.1745 26.4152C13.3126 26.3189 14.2173 25.7298 14.3451 25.6409C14.4743 25.552 14.536 25.61 14.4596 25.6866C14.3832 25.7632 13.5035 26.3423 13.3581 26.4386L13.3361 26.4547C13.4066 26.4744 13.4844 26.4893 13.5652 26.5066C13.7708 26.3929 14.3025 26.0867 14.4581 26.0089C14.6373 25.9188 14.6594 25.9323 14.5301 26.0348C14.42 26.1213 13.9617 26.4522 13.8163 26.5559C13.9426 26.5794 14.0792 26.6004 14.2261 26.6226C14.2657 26.5992 14.3157 26.5732 14.3759 26.5436C14.4787 26.4954 14.4185 26.5757 14.3597 26.6399C14.6417 26.6757 14.9634 26.7115 15.3291 26.7412C15.3775 26.7128 15.4201 26.6671 15.5464 26.5893C15.7139 26.4856 15.6463 26.6288 15.5582 26.7585L15.7227 26.7708C15.78 26.7362 15.8331 26.6969 15.8813 26.6535C15.9959 26.551 16.1104 26.5769 16.0282 26.6733C15.9973 26.7071 15.9735 26.7451 15.9577 26.7856L16.2132 26.798C16.4144 26.7152 16.6098 26.6288 16.7992 26.5522C17.0239 26.4596 16.9549 26.5621 16.855 26.6263V26.6263ZM14.1292 17.6612C13.8927 17.7785 12.9777 18.2687 12.6546 18.4996L12.6531 18.6713C12.9983 18.4589 13.9015 17.9007 14.301 17.7649C14.2422 17.7303 14.185 17.697 14.1292 17.6612ZM13.7752 17.4043C13.5564 17.5401 12.9469 17.8859 12.6605 18.0773L12.6575 18.223C12.9322 18.0563 13.6841 17.6068 13.903 17.5056C13.8597 17.4724 13.8171 17.4387 13.7752 17.4043V17.4043ZM13.5255 17.1697C13.3816 17.2462 12.8881 17.5043 12.6693 17.6575C12.6693 17.7056 12.6693 17.7538 12.6663 17.8019C12.8367 17.697 13.3537 17.4068 13.6136 17.2598C13.5843 17.2302 13.5534 17.2005 13.5255 17.1697V17.1697Z" fill="url(#paint5_linear_1106_450)"/>
<path d="M19.1405 33.5664C19.1405 33.5664 19.3505 33.354 20.1039 33.2379C20.8647 33.1219 21.4155 32.9675 21.4155 32.9675C21.4155 32.9675 21.2524 33.1614 20.4975 33.3528C19.7382 33.5467 19.0274 33.7208 19.1405 33.5664V33.5664ZM20.4344 32.7625C21.0688 32.6637 21.6563 32.4958 21.6769 32.5044C21.6916 32.5143 21.5271 32.6847 20.8485 32.8551C20.1774 33.0231 19.537 33.1787 19.6207 33.0441C19.609 33.0478 19.7808 32.8638 20.4344 32.7625V32.7625ZM20.7648 32.2883C21.2759 32.2056 21.9001 32.0216 21.9354 32.0413C21.9721 32.0611 21.8032 32.2105 21.201 32.355C20.6136 32.4995 20.0452 32.6378 20.0995 32.5254C20.079 32.5291 20.2111 32.3735 20.7648 32.2883V32.2883ZM21.0938 31.8129C21.4845 31.7474 22.1469 31.5499 22.1953 31.5795C22.2467 31.6079 22.0778 31.7363 21.555 31.8573C21.0527 31.9796 20.5533 32.0944 20.5798 32.0068C20.5431 32.0105 20.6415 31.8833 21.0938 31.8129ZM21.4272 31.3375C21.6886 31.2893 22.3877 31.0769 22.4597 31.1152C22.5287 31.1535 22.3539 31.2609 21.9089 31.356C21.4904 31.4523 21.0659 31.5499 21.0571 31.4844C21.0116 31.4931 21.0718 31.393 21.4272 31.3375ZM21.7547 30.862C21.8957 30.8312 22.633 30.604 22.7211 30.6521C22.8048 30.7003 22.6301 30.7842 22.26 30.8571C21.9295 30.93 21.5711 31.009 21.5374 30.9645C21.4786 30.9744 21.5021 30.9028 21.7547 30.862ZM22.0837 30.3878C22.1043 30.3718 22.8753 30.131 22.9781 30.189C23.0839 30.2471 22.9032 30.3101 22.611 30.3582C22.3642 30.4064 22.0808 30.4669 22.0147 30.4447C21.9427 30.4558 21.9324 30.4138 22.0837 30.3878ZM22.4171 29.9124C22.3084 29.9149 23.1206 29.6593 23.241 29.7272C23.3615 29.7951 23.1808 29.8359 22.9679 29.8593C22.8019 29.884 22.5919 29.926 22.4949 29.9248C22.4142 29.9371 22.3628 29.9235 22.4171 29.9124ZM22.7432 29.437C22.517 29.458 23.3629 29.1863 23.5039 29.2629C23.6391 29.3394 23.4555 29.3592 23.3203 29.3592C23.1794 29.3592 22.8577 29.4271 22.7432 29.437V29.437ZM22.962 29.0344C22.7637 29.0517 23.5671 28.806 23.7022 28.8603C23.8314 28.9208 23.6684 28.9542 23.5274 28.9653C23.3923 28.9727 23.0912 29.0369 22.962 29.0344V29.0344ZM23.1764 28.6319C23.0163 28.6467 23.7639 28.4269 23.9019 28.459C24.0224 28.501 23.8784 28.5491 23.736 28.5713C23.6009 28.5862 23.3262 28.643 23.1764 28.6319ZM23.3952 28.2305C23.2631 28.2404 23.9666 28.0453 24.1032 28.0552C24.2148 28.0799 24.0914 28.1428 23.9431 28.1762C23.8138 28.1997 23.5583 28.2515 23.3952 28.2305V28.2305ZM23.6097 27.8267C23.5127 27.8354 24.1634 27.665 24.3044 27.6538C24.4072 27.66 24.3044 27.7378 24.1502 27.7823C24.0224 27.8131 23.7874 27.8601 23.6097 27.8267ZM23.8285 27.4254C23.7624 27.4303 24.3646 27.2846 24.5026 27.2513C24.5996 27.2414 24.5144 27.3328 24.3558 27.3883C24.1879 27.4432 24.0048 27.456 23.8285 27.4254V27.4254ZM24.0429 27.0228C24.0121 27.0253 24.5643 26.9043 24.7024 26.8487C24.792 26.8203 24.7259 26.9277 24.5614 26.9944C24.3981 27.0556 24.2143 27.0657 24.0429 27.0228V27.0228ZM24.2588 26.6203C24.2588 26.6203 24.7641 26.5239 24.9021 26.4461C25.0416 26.3696 24.8096 26.7746 24.2588 26.6203ZM15.1956 33.7973C15.1956 33.7973 15.7919 33.5849 16.3426 33.5467C16.8934 33.5084 18.293 33.3343 18.5912 33.1033C18.8893 32.8724 18.7513 33.2194 18.5001 33.317C18.249 33.412 16.8478 33.7405 16.3441 33.7405C15.8388 33.7393 15.1956 33.7973 15.1956 33.7973V33.7973ZM15.3792 33.3923C15.3792 33.3923 15.7919 33.007 16.6408 32.9626C17.193 32.9354 18.5912 32.7934 18.8893 32.5625C19.1875 32.3303 19.0494 32.6353 18.7983 32.7316C18.5456 32.828 17.146 33.1564 16.6408 33.1564C16.1355 33.1564 15.3792 33.3923 15.3792 33.3923V33.3923ZM15.9373 32.8638C15.9373 32.8638 16.3544 32.497 17.1504 32.4513C17.6762 32.4204 18.9907 32.2982 19.2785 32.0747C19.5488 31.8648 19.3696 32.1611 19.1184 32.2513C18.8732 32.3402 17.5837 32.6415 17.1078 32.644C16.6393 32.6477 15.9431 32.8625 15.9373 32.8638V32.8638ZM16.7553 32.2476C16.7553 32.2476 17.1724 31.8969 17.917 31.8499C18.4193 31.8166 19.6486 31.7141 19.9233 31.498C20.1671 31.3091 19.9468 31.5993 19.6942 31.682C19.4592 31.7635 18.2769 32.0364 17.8319 32.0426C17.403 32.0463 16.7656 32.2439 16.7553 32.2476V32.2476ZM19.2961 30.6484C18.9085 30.6804 18.5404 30.807 18.2372 31.0127C18.2592 31.004 18.7718 30.8472 19.1272 30.8398C19.512 30.8262 20.4755 30.6077 20.6958 30.5434C20.9484 30.4731 21.2524 30.1977 21.063 30.3446C20.8045 30.541 19.7485 30.6089 19.2961 30.6484ZM18.7072 30.4916C18.7366 30.4829 19.1875 30.3434 19.5076 30.3347C19.8601 30.3187 20.7178 30.1285 20.9279 30.0705C21.0491 30.0343 21.1631 29.9827 21.2657 29.9174C20.9279 30.0606 20.101 30.1051 19.7191 30.1433C19.3508 30.1811 19.0013 30.3014 18.7072 30.4916V30.4916ZM19.3534 29.9655C19.3843 29.9532 19.7779 29.8346 20.0613 29.8235C20.383 29.805 21.132 29.642 21.3317 29.5914C21.4375 29.5679 21.5667 29.5086 21.6725 29.4568C21.3229 29.5679 20.6488 29.5963 20.3154 29.6346C19.9672 29.6764 19.6367 29.7901 19.3534 29.9655V29.9655ZM19.7514 29.4716C19.7882 29.4592 20.1186 29.3592 20.3653 29.3468C20.6576 29.3246 21.298 29.1876 21.4933 29.1468C21.599 29.1246 21.74 29.0678 21.8575 29.0134C21.5212 29.1023 20.9602 29.1196 20.665 29.1567C20.1788 29.2098 19.7514 29.4716 19.7514 29.4716ZM20.5122 28.848C20.5548 28.8319 20.825 28.7516 21.0336 28.7368C21.295 28.7121 21.8252 28.6035 22.0088 28.5676C22.1234 28.5491 22.2864 28.4886 22.4186 28.4318C22.1087 28.5034 21.6358 28.5096 21.3714 28.5479C20.9425 28.601 20.5122 28.848 20.5122 28.848ZM20.9939 28.3318C21.0395 28.3133 21.2524 28.254 21.4243 28.2379C21.6534 28.2108 22.0749 28.1293 22.2526 28.1021C22.3789 28.0848 22.5713 28.0144 22.7255 27.9539C22.4479 28.012 22.0426 28.012 21.8047 28.049C21.4272 28.1033 20.9939 28.3318 20.9939 28.3318V28.3318ZM21.4243 27.9514C21.4757 27.9317 21.6255 27.8909 21.7606 27.8736C21.9647 27.844 22.2776 27.7897 22.4435 27.7687C22.5875 27.7539 22.8254 27.6736 23.0002 27.6081C22.7505 27.6551 22.4068 27.644 22.1851 27.6847C21.8575 27.7403 21.4243 27.9514 21.4243 27.9514V27.9514ZM22.962 27.271C22.7446 27.3105 22.4421 27.292 22.2394 27.334C21.9941 27.3998 21.7563 27.4837 21.5285 27.5847C21.6886 27.5266 22.0558 27.4686 22.3084 27.4513C22.4685 27.4377 22.7637 27.3427 22.962 27.271V27.271ZM29.2098 26.8228C28.7251 26.7882 27.7749 27.0092 27.7176 27.0636C27.7382 27.1932 28.1567 27.1117 29.364 26.9907C30.445 26.8833 30.3847 26.5919 30.3818 26.5437C30.3275 26.5906 29.6592 26.8549 29.2098 26.8228ZM29.1349 27.2562C28.6869 27.2241 27.8498 27.3982 27.7352 27.5069C27.747 27.6106 28.1288 27.5266 29.1437 27.4192C29.8927 27.3427 29.9955 27.1624 30.019 27.087C29.7476 27.209 29.4423 27.2674 29.1349 27.2562ZM29.0541 27.7292C28.6561 27.7008 27.9217 27.8255 27.7455 27.9897C27.7573 28.0675 28.1009 27.9786 28.9219 27.886C29.3669 27.8378 29.5329 27.7477 29.6078 27.6822C29.4815 27.7156 29.27 27.7452 29.0541 27.7292ZM28.9792 28.2021C28.6179 28.1762 27.9922 28.254 27.7631 28.4726C27.769 28.5257 28.073 28.433 28.7046 28.3528C29.0144 28.3182 29.1525 28.2565 29.2259 28.2108C29.1436 28.2111 29.0612 28.2082 28.9792 28.2021ZM27.7778 28.9937C28.0642 28.7183 28.5871 28.6911 28.9058 28.7121C29.2215 28.7368 29.2612 28.7961 28.9924 28.7479C28.9014 28.7306 28.8265 28.8109 28.4843 28.8566C28.0451 28.9233 27.7808 29.0196 27.7778 28.9937ZM19.1096 29.437C19.1096 29.437 19.6516 28.7813 20.1025 28.3182C20.5548 27.8551 19.609 29.09 19.1096 29.437ZM10.111 30.0544C10.111 30.0544 10.6544 29.3987 11.1053 28.9356C11.5576 28.4726 10.6118 29.7074 10.111 30.0544V30.0544ZM9.84513 29.9964C9.84513 29.9964 10.39 29.3407 10.8424 28.8776C11.2933 28.4145 10.3474 29.6494 9.84513 29.9964ZM9.21654 30.1359C9.21654 30.1359 9.75995 29.4802 10.2123 29.0171C10.6647 28.5541 9.71883 29.7889 9.21654 30.1359ZM9.12988 29.7988C9.12988 29.7988 9.6733 29.1443 10.1257 28.6813C10.5765 28.2182 9.63217 29.453 9.12988 29.7988ZM9.30906 28.99C9.30906 28.99 9.85248 28.333 10.3048 27.8699C10.7572 27.4069 9.81135 28.6405 9.30906 28.99ZM10.6603 28.848C10.6603 28.848 11.0568 28.396 11.3873 28.0762C11.7177 27.7588 11.0289 28.6096 10.6603 28.848ZM11.4445 28.5516C11.4445 28.5516 11.8411 28.0996 12.1715 27.7798C12.502 27.46 11.8117 28.312 11.4445 28.5516V28.5516ZM18.7043 29.453C18.7043 29.453 19.7206 28.2799 20.1715 27.8168C20.6238 27.3525 19.2066 29.1036 18.7043 29.453ZM18.177 29.563C18.177 29.563 19.1904 28.3898 19.6442 27.9267C20.098 27.4637 18.6778 29.2147 18.177 29.563ZM12.7649 29.4246C12.7649 29.4246 13.7812 28.2528 14.2321 27.7897C14.6859 27.3266 13.2672 29.0776 12.7649 29.4246ZM12.477 29.2518C12.477 29.2518 13.4919 28.0786 13.9457 27.6156C14.3966 27.1525 12.9793 28.9035 12.477 29.2518ZM16.6496 30.3249C16.6496 30.3249 18.4223 28.3256 18.8746 27.8625C19.327 27.3995 17.1519 29.9766 16.6496 30.3249ZM10.6529 30.5249C10.6529 30.5249 12.4256 28.5257 12.878 28.0626C13.3289 27.5995 11.1552 30.1779 10.6529 30.5249ZM10.2975 30.4187C10.2975 30.4187 12.0702 28.4195 12.5226 27.9564C12.9749 27.4933 10.7998 30.0717 10.2975 30.4187V30.4187ZM16.1634 30.4348C16.1634 30.4348 17.9361 28.4367 18.3885 27.9737C18.8408 27.5106 16.6643 30.0878 16.1634 30.4348ZM15.6773 30.4545C15.6773 30.4545 17.4515 28.4553 17.9024 27.9922C18.3562 27.5291 16.1796 30.1075 15.6773 30.4545ZM15.2499 30.5323C15.2499 30.5323 17.0226 28.5343 17.475 28.0712C17.9273 27.6069 15.7507 30.1841 15.2499 30.5323ZM14.9253 30.4138C14.9253 30.4138 16.698 28.4145 17.1504 27.9514C17.6027 27.4884 15.4276 30.0668 14.9253 30.4138ZM13.699 30.4348C13.699 30.4348 15.4731 28.4367 15.924 27.9737C16.3764 27.5106 14.2013 30.0878 13.699 30.4348ZM13.2554 30.4743C13.2554 30.4743 15.0281 28.475 15.482 28.012C15.9328 27.5489 13.7577 30.1273 13.2554 30.4743ZM12.7238 30.6089C12.7238 30.6089 14.4979 28.6096 14.9503 28.1466C15.4026 27.6835 13.2275 30.2619 12.7238 30.6089ZM12.6459 30.3002C12.6459 30.3002 14.4201 28.3009 14.8725 27.8378C15.3233 27.3748 13.1497 29.9532 12.6459 30.3002ZM11.9982 30.5706C11.9982 30.5706 13.7709 28.5713 14.2233 28.1083C14.6756 27.6452 12.5005 30.2236 11.9982 30.5706ZM14.3467 30.5681C14.3467 30.5681 15.5715 29.1777 16.3544 28.3775C16.8052 27.9132 14.849 30.2211 14.3467 30.5681ZM14.1778 30.2841C14.1778 30.2841 15.4026 28.8937 16.1855 28.091C16.6378 27.6279 14.6801 29.9359 14.1778 30.2841V30.2841ZM18.0228 29.2629C18.0228 29.2629 18.647 28.5108 19.1008 28.0478C19.5517 27.5847 18.5265 28.9159 18.0228 29.2629V29.2629ZM16.8581 30.3434C16.8581 30.3434 17.0505 30.0791 17.5029 29.6161C17.9538 29.153 17.3604 29.9964 16.8581 30.3434Z" fill="url(#paint6_linear_1106_450)"/>
<path d="M15.244 30.5322C15.244 30.5322 16.8596 28.6935 17.4676 28.0711L15.244 30.5322ZM23.639 32.0004C23.639 32.0004 23.7888 32.0535 24.7464 32.035C24.9138 32.0331 25.0808 32.0203 25.2458 31.9967C25.3809 31.9226 25.5101 31.8486 25.6423 31.7708C25.2267 31.8078 24.6098 31.8424 24.3029 31.8424C24.0679 31.8391 23.837 31.894 23.639 32.0004V32.0004ZM23.5245 32.4425C23.5245 32.4425 23.639 32.482 24.2882 32.4796C24.438 32.4104 24.5834 32.3413 24.7303 32.2659C24.5498 32.2758 24.3691 32.2819 24.1883 32.2845C23.7786 32.2857 23.5245 32.4425 23.5245 32.4425V32.4425ZM18.3385 33.6095C18.1461 33.7601 17.4896 33.8873 16.9022 33.9664C17.1004 33.9738 17.3002 33.9787 17.4999 33.9787C17.5601 33.9787 17.6218 33.9787 17.6806 33.9762C17.9479 33.9133 18.1623 33.854 18.2475 33.8219C18.4986 33.7256 18.6367 33.3773 18.3385 33.6095V33.6095ZM29.5828 26.4843C30.5316 26.3929 30.724 26.178 30.7475 26.0471C30.3407 26.2311 29.9103 26.3361 29.4536 26.3608C29.2197 26.3748 28.9848 26.367 28.753 26.3373C28.3973 26.387 28.0457 26.455 27.7 26.5411C27.7264 26.6967 28.1832 26.6201 29.5828 26.4843V26.4843ZM27.7954 29.6678C27.7954 29.6678 28.3198 29.4356 28.6443 29.4936C28.6502 29.4961 28.6531 29.4961 28.659 29.4961C28.7016 29.4578 28.7427 29.4159 28.7853 29.3751C28.5092 29.3566 28.12 29.3566 27.7954 29.6678ZM6.45245 28.3279C6.07206 28.3193 5.64614 28.5453 5.49634 28.6305L5.56096 28.7021C5.74748 28.6058 6.122 28.5712 6.35993 28.5206C6.63604 28.4625 6.92243 28.3366 6.45245 28.3279V28.3279ZM8.54093 28.1155C8.87285 28.0538 8.81117 27.8846 8.63639 27.8735C8.39282 27.921 8.15452 27.9858 7.92408 28.0674C7.12511 28.4107 6.36727 29.0911 6.14256 29.3059L6.30999 29.469C7.12364 28.6045 8.17376 28.1822 8.54093 28.1155ZM12.7282 30.952L12.5225 31.183C12.5225 31.183 12.7282 31.1731 12.7282 30.952ZM11.9512 31.2459L11.7441 31.4769C11.7441 31.4769 11.9512 31.4682 11.9512 31.2459ZM12.0849 31.8263L11.9057 32.0264C11.9057 32.0276 12.0849 32.0202 12.0849 31.8263ZM11.4445 31.8868L11.2374 32.119C11.2374 32.119 11.4445 32.1091 11.4445 31.8868ZM12.8897 31.4238L12.6826 31.6559C12.6826 31.6559 12.8897 31.646 12.8897 31.4238ZM13.4625 30.8545L13.2569 31.0866C13.2569 31.0866 13.4625 31.0768 13.4625 30.8545ZM14.47 31.5423L14.2629 31.7732C14.2629 31.7732 14.47 31.7646 14.47 31.5423ZM12.4799 32.5697L12.3125 32.7587C12.3125 32.7587 12.4799 32.75 12.4799 32.5697ZM11.2683 31.4213L11.0627 31.6534C11.0627 31.6534 11.2683 31.6436 11.2683 31.4213ZM10.6617 31.6152L10.3856 31.9239C10.3856 31.9239 10.6617 31.9103 10.6617 31.6152ZM9.59398 30.8767L9.45005 31.0385C9.45005 31.0385 9.59398 31.0311 9.59398 30.8767ZM10.3283 30.7347L10.1212 30.9656C10.1212 30.9656 10.3283 30.9557 10.3283 30.7347ZM14.7564 31.9597L14.5508 32.1918C14.5508 32.1906 14.7564 32.182 14.7564 31.9597ZM14.9518 32.345L14.7447 32.5771C14.7447 32.5771 14.9518 32.5672 14.9518 32.345ZM13.9589 32.177L13.7812 32.3746C13.7812 32.3746 13.9589 32.366 13.9589 32.177ZM14.1895 32.524L14.0221 32.7117C14.0221 32.7117 14.1895 32.7043 14.1895 32.524ZM14.3981 32.9439L14.2468 33.1131C14.2468 33.1118 14.3981 33.1057 14.3981 32.9439ZM13.6681 33.1439L13.5227 33.3057C13.5227 33.3057 13.6681 33.2983 13.6681 33.1439ZM13.4772 32.7945L13.2701 33.0266C13.2701 33.0254 13.4772 33.0155 13.4772 32.7945ZM13.3054 32.2437L13.0983 32.4759C13.0983 32.4759 13.3054 32.466 13.3054 32.2437ZM13.063 31.8819L12.9029 32.0609C12.9029 32.0609 13.063 32.0535 13.063 31.8819ZM14.3834 31.0286L14.1778 31.2608C14.1778 31.2608 14.3834 31.2521 14.3834 31.0286ZM15.0604 30.8644L14.8548 31.0965C14.8548 31.0977 15.0604 31.0866 15.0604 30.8644ZM15.2866 31.3176L15.1353 31.4867C15.1353 31.4867 15.2866 31.4793 15.2866 31.3176ZM16.0121 31.1583L15.8609 31.3274C15.8609 31.3274 16.0121 31.32 16.0121 31.1583ZM16.7245 30.9854L16.5717 31.1546C16.5717 31.1546 16.7245 31.1471 16.7245 30.9854ZM17.4015 30.7261L17.2488 30.8977C17.2488 30.8977 17.4015 30.8891 17.4015 30.7261ZM18.7366 29.611L18.5823 29.7801C18.5823 29.7801 18.7042 29.774 18.7366 29.611ZM12.126 29.3788L11.9718 29.5492C11.9718 29.5492 12.0937 29.5418 12.126 29.3788ZM10.6588 28.1822L10.506 28.3526C10.506 28.3526 10.6265 28.3452 10.6588 28.1822ZM15.5025 31.7473L15.2954 31.9794C15.2954 31.9794 15.5025 31.9696 15.5025 31.7473ZM12.8177 32.8957L12.6107 33.1279C12.6107 33.1266 12.8177 33.1168 12.8177 32.8957ZM11.6619 32.2882L11.4548 32.5191C11.4548 32.5191 11.6619 32.5092 11.6619 32.2882ZM11.189 30.9471L10.9393 31.2274C10.9393 31.2262 11.189 31.2151 11.189 30.9471ZM10.4678 31.1397L10.2622 31.3719C10.2622 31.3707 10.4678 31.362 10.4678 31.1397ZM10.7102 32.0461L10.5031 32.2783C10.5031 32.2783 10.7102 32.2684 10.7102 32.0461ZM9.96409 31.6411L9.757 31.8733C9.757 31.8745 9.96409 31.8634 9.96409 31.6411ZM9.80253 31.1978L9.59545 31.4299C9.59545 31.4287 9.80253 31.4188 9.80253 31.1978Z" fill="url(#paint7_linear_1106_450)"/>
<path d="M12.8867 12.1216C12.4666 12.6229 11.8028 13.1885 11.1566 13.7368L11.0464 13.8306C11.2873 13.9035 11.722 14.0579 11.7426 14.1937C11.7646 14.3579 11.7426 14.6667 11.581 14.7926C11.4209 14.9173 11.1331 15.0915 10.9612 15.0717C10.7894 15.0532 10.7204 14.9951 10.7204 14.8692C10.7204 14.7445 10.8702 14.6951 10.9965 14.6864C11.1228 14.6765 11.2138 14.5802 11.2138 14.5024C11.2138 14.4259 11.0993 14.3481 10.9965 14.2517C10.9196 14.1873 10.8609 14.1093 10.8246 14.0233L10.5382 14.2678C10.0389 14.7062 10.1535 15.1026 10.4046 15.3076C10.619 15.4841 10.9803 15.5607 11.2256 15.3532C11.5825 15.0544 12.2522 14.5259 12.778 14.1159C12.9821 13.7899 13.3009 13.6195 13.4712 13.5491C13.2634 13.0771 13.0685 12.6011 12.8867 12.1216V12.1216Z" fill="url(#paint8_linear_1106_450)"/>
<path d="M9.58235 17.8291L9.65432 17.4265C9.69691 17.1968 9.74391 16.898 9.84819 16.6448C9.7423 16.8976 9.66221 17.1574 9.60879 17.4216C9.5662 17.6537 9.58235 17.8266 9.58235 17.8291V17.8291ZM9.27687 17.3129C9.2754 17.3129 9.28274 17.245 9.28715 17.1437C9.29009 17.0425 9.28421 16.898 9.32827 16.7486C9.28439 16.8777 9.25489 17.01 9.24015 17.1437C9.23604 17.2018 9.24864 17.2598 9.27687 17.3129V17.3129ZM8.63358 16.1571L8.73052 15.7928C8.78339 15.5915 8.8392 15.342 8.92879 15.1778C8.82525 15.3725 8.7441 15.5752 8.68646 15.7829C8.63358 15.9866 8.63505 16.1534 8.63358 16.1571V16.1571ZM8.41915 15.4618C8.43635 15.4111 8.45398 15.3605 8.47203 15.3099C8.50287 15.221 8.53518 15.0975 8.62477 14.9988C8.5394 15.0878 8.47283 15.1884 8.42797 15.2964C8.39712 15.3877 8.42062 15.4569 8.41915 15.4618V15.4618ZM8.29725 14.9457L8.31488 14.8259C8.32663 14.7567 8.33838 14.6592 8.41034 14.5863C8.33964 14.6513 8.29095 14.731 8.26935 14.8172C8.2576 14.8926 8.29578 14.9419 8.29725 14.9457V14.9457ZM8.65561 13.3008C8.56162 13.365 8.43384 13.533 8.34131 13.7021C8.25026 13.8713 8.2106 14.0356 8.20473 14.0491C8.20473 14.0454 8.28697 13.896 8.37803 13.7281C8.46909 13.5601 8.56749 13.3613 8.65561 13.3008ZM8.40006 13.0439C8.46615 12.9575 8.53518 12.8476 8.59393 12.8106C8.50568 12.8689 8.42886 12.9384 8.36628 13.0168C8.29579 13.1032 8.26935 13.1946 8.26494 13.202C8.26641 13.1995 8.3325 13.1292 8.40006 13.0439V13.0439ZM8.56309 12.2203C8.52636 12.2246 8.49118 12.2355 8.45999 12.2523C8.42879 12.2692 8.40233 12.2915 8.38244 12.3178C8.34572 12.3685 8.35747 12.424 8.356 12.4277C8.37658 12.3996 8.39665 12.3712 8.41622 12.3425C8.45 12.2981 8.49406 12.2302 8.56309 12.2203ZM8.37216 11.8461C8.31047 11.9264 8.30019 12.0116 8.29578 12.0178L8.40741 11.8721C8.46615 11.7943 8.53665 11.6905 8.62477 11.6535C8.52228 11.6984 8.43528 11.7647 8.37216 11.8461V11.8461ZM15.9374 1.28549L15.9917 1.57321L16.0901 1.85106L16.0372 1.56457L15.9374 1.28549V1.28549ZM20.7473 1.35094L20.7326 1.34847L20.6577 1.51147L20.6093 1.6967L20.621 1.70041L20.7018 1.52382L20.7473 1.35094V1.35094ZM20.3464 1.27314C20.3414 1.27291 20.3364 1.27208 20.3317 1.27067L20.245 1.44726L20.1995 1.59544C20.2063 1.59733 20.2131 1.59898 20.2201 1.60038L20.2891 1.45961L20.3464 1.27314V1.27314ZM19.9293 1.20522L19.916 1.20275L19.847 1.35835L19.8088 1.52382L19.8235 1.52629L19.8896 1.36823L19.9293 1.20522V1.20522ZM21.1439 1.43738L21.1321 1.43491L21.0249 1.62631L20.9573 1.81525L20.9706 1.82019L21.069 1.6399L21.1439 1.43738V1.43738ZM19.098 1.10149L19.0818 1.10026L19.0657 1.27191L19.0877 1.48554L19.0936 1.4843L19.1127 1.27191L19.098 1.10149V1.10149ZM19.4446 1.13977L19.4255 1.1373L19.3873 1.27067L19.3712 1.46084H19.3785L19.4328 1.27561L19.4446 1.13977V1.13977ZM18.7308 1.06939L18.7088 1.06692L18.7308 1.23733L18.8087 1.52011H18.8101L18.7749 1.23115L18.7308 1.06939V1.06939ZM18.2931 1.04222L18.2814 1.04098L18.3313 1.30278L18.4239 1.57939L18.4327 1.57692L18.3783 1.29413L18.2931 1.04222V1.04222ZM17.9994 1.02987H17.9847L18.0435 1.30278L18.1477 1.62631L18.1551 1.62508L18.0861 1.29413L17.9994 1.02987V1.02987ZM17.5647 1.02246H17.5544L17.644 1.36823L17.7674 1.70164L17.7776 1.69917L17.688 1.35835L17.5647 1.02246V1.02246ZM17.3752 1.56951L17.29 1.26697L17.1828 1.02617H17.1755L17.246 1.27808L17.3752 1.56951V1.56951ZM17.0712 1.672L16.9845 1.30648L16.8861 1.03481H16.8744L16.9405 1.31636L17.0712 1.672V1.672ZM16.7319 1.62014L16.6159 1.27931L16.5072 1.05333L16.4925 1.05457L16.5733 1.29166L16.7319 1.62014ZM15.3866 1.6967L15.2706 1.40774L15.1472 1.19411L15.1369 1.19534L15.228 1.42132L15.3866 1.6967ZM14.8975 1.43985C14.9005 1.44973 14.9166 1.57198 14.9739 1.71522C15.0312 1.85847 15.1267 2.019 15.203 2.13508C15.1281 2.02147 15.0723 1.83995 15.015 1.6967C14.9578 1.55346 14.8975 1.44232 14.8975 1.43985V1.43985ZM14.5304 1.51764C14.5318 1.52752 14.5406 1.66953 14.5906 1.82266C14.6338 1.96206 14.7064 2.09381 14.805 2.21164C14.7316 2.13755 14.6816 1.95479 14.6332 1.8029C14.5847 1.65101 14.5304 1.52011 14.5304 1.51764V1.51764ZM14.1632 1.56951C14.1647 1.57939 14.1735 1.72016 14.2249 1.87082C14.2626 1.99863 14.3305 2.11874 14.4246 2.22399C14.3585 2.1536 14.3115 1.98937 14.266 1.84983C14.2175 1.70164 14.1632 1.57198 14.1632 1.56951V1.56951ZM13.8562 1.7745L14.0046 2.09063L14.1926 2.39193L14.0457 2.07581L13.8562 1.7745V1.7745ZM13.4288 1.74857L13.6227 2.09186L13.8562 2.41787L13.6638 2.07457L13.4288 1.74857ZM13.1219 1.85106L13.3304 2.32278L13.5816 2.77722L13.373 2.30673L13.1219 1.85106ZM12.7547 1.95479L12.9486 2.33637L13.1836 2.70065L12.9912 2.31908L12.7547 1.95479ZM12.3273 2.15978L12.5829 2.54382L12.8781 2.90688L12.6225 2.52283L12.3273 2.15978ZM12.0204 2.28944L12.3376 2.76116L12.6945 3.2156L12.3773 2.74264L12.0204 2.28944ZM11.684 2.34131L12.0777 2.94145L12.5109 3.52431L12.1188 2.9217L11.684 2.34131V2.34131ZM11.3169 2.4685L11.6811 2.94269L12.0821 3.39465L11.7178 2.92046L11.3169 2.4685ZM11.2258 2.85501L11.5577 3.29092L11.9293 3.70337L11.5959 3.26869L11.2258 2.85501V2.85501ZM10.7661 2.82908L11.2376 3.407L11.7457 3.96146L11.2743 3.38354L10.7661 2.82908ZM10.3681 3.1131L10.8102 3.56259L11.286 3.98739L10.8454 3.53666L10.3681 3.1131ZM10.1537 3.34402L10.6266 3.84415L11.1333 4.32081L10.6618 3.82068L10.1537 3.34402ZM9.66607 3.36995L10.3049 4.01209L10.9805 4.62952L10.3402 3.98739L9.66607 3.36995ZM9.41933 3.62681L9.96862 4.1541L10.5517 4.65669L10.0024 4.12817L9.41933 3.62681ZM9.02279 3.78117L9.55739 4.25783L10.1243 4.70732L9.5897 4.23066L9.02279 3.78117ZM9.02279 4.16645L9.41933 4.54061L9.84966 4.88761L9.45164 4.51345L9.02279 4.16645V4.16645ZM8.59393 4.29611L9.05216 4.67028L9.5427 5.01604L9.083 4.64187L8.59393 4.29611ZM8.62477 4.75919L8.99194 5.03086L9.38996 5.27413L9.02132 5.00122L8.62477 4.75919V4.75919ZM9.26659 5.60754L8.83773 5.27166L8.3795 4.96541L8.80836 5.3013L9.26659 5.60754ZM8.8392 5.65941L8.3795 5.28401L7.89043 4.93824L8.34866 5.31364L8.8392 5.65941ZM8.62477 5.8397L8.2106 5.55321L7.76706 5.29883L8.1827 5.58532L8.62477 5.8397V5.8397ZM8.56309 6.22498L8.01086 5.86193L7.43073 5.53098L7.98295 5.89403L8.56309 6.22498V6.22498ZM8.59393 6.45714L7.77881 6.04098L6.94165 5.65941L7.75678 6.07433L8.59393 6.45714ZM7.12524 6.14842L7.49535 6.35835L7.89043 6.5337L7.52032 6.32377L7.12524 6.14842ZM7.00334 7.76857L6.49371 7.53271L5.96204 7.33143L6.47314 7.56729L7.00334 7.76857V7.76857ZM6.94165 8.05259L6.24697 7.80191L5.53465 7.58951L6.22934 7.83896L6.94165 8.05259V8.05259ZM5.96204 8.00073L5.68005 7.89206L5.38044 7.82044L5.6639 7.92787L5.96204 8.00073ZM6.66554 8.67003L5.78727 8.35514L4.89137 8.07729L5.77111 8.39095L6.66554 8.67003ZM6.5128 8.92688L5.44506 8.82933L4.37145 8.77252L5.44066 8.86884L6.5128 8.92688ZM5.13664 9.8271C4.83262 9.8271 4.44342 9.85921 4.12912 9.90984C3.81482 9.9617 3.58277 10.0395 3.57836 10.0407L4.13646 9.94812C4.44929 9.89749 4.83556 9.8271 5.13664 9.8271V9.8271ZM4.43314 10.3408C4.15024 10.3552 3.87003 10.3953 3.59745 10.4606C3.35218 10.5211 3.18622 10.6051 3.18181 10.6063L3.61067 10.4976C3.853 10.4359 4.1629 10.3544 4.43314 10.3408ZM3.70614 10.773L3.20825 10.9336L3.72082 10.8101L4.22018 10.6495L3.70614 10.773ZM5.13664 10.7014C5.12929 10.7014 5.04264 10.6829 4.88549 10.7063C4.65828 10.749 4.43573 10.8077 4.22018 10.8817C4.50363 10.7928 4.73716 10.7668 4.8943 10.7434C5.04999 10.7212 5.13517 10.7014 5.13664 10.7014V10.7014ZM4.58588 11.0879C4.56972 11.0916 4.37145 11.1114 4.15262 11.1694C3.93231 11.2274 3.69879 11.3188 3.57542 11.3966C3.69439 11.3213 3.95728 11.2608 4.17758 11.2028C4.39642 11.1447 4.58294 11.0891 4.58588 11.0879ZM4.70778 11.3188C4.70044 11.3213 4.34648 11.4337 3.94553 11.5905C3.57922 11.7351 3.22098 11.8938 2.87192 12.0659C3.0981 11.9511 3.56514 11.7819 3.96609 11.6251C4.36558 11.4682 4.70044 11.3213 4.70778 11.3188V11.3188ZM4.55504 11.6794C4.51979 11.6918 4.08065 11.8227 3.62242 11.9968C3.16272 12.1721 2.68834 12.387 2.53559 12.5018C2.6854 12.3882 3.19944 12.1993 3.66354 12.0239C4.12618 11.8486 4.54623 11.6819 4.55504 11.6794V11.6794ZM5.32022 11.6547C5.31141 11.6572 4.82234 11.8288 4.20402 12.1017C3.58424 12.3759 2.83667 12.75 2.25948 13.0958C2.83374 12.7525 3.60627 12.4105 4.22458 12.1376C4.8429 11.8634 5.31141 11.6572 5.32022 11.6547ZM4.80031 12.1931C4.7915 12.1968 4.40376 12.3425 3.8956 12.5809C3.38596 12.8192 2.7603 13.1489 2.2301 13.4552C2.75883 13.1489 3.40946 12.8513 3.91763 12.613C4.42579 12.3771 4.7915 12.1968 4.80031 12.1931ZM5.6874 12.0906C5.68005 12.0931 5.26588 12.2166 4.59322 12.5685C3.92203 12.9217 2.9997 13.5021 1.92315 14.3541C2.74872 13.6963 3.6506 13.1097 4.61525 12.6031C5.28498 12.2512 5.68005 12.0931 5.6874 12.0906V12.0906ZM3.98666 13.4144C4.74303 12.9032 5.2791 12.6364 5.28938 12.6315C5.2791 12.6364 4.71806 12.8698 3.96022 13.3848C2.97458 14.061 2.11298 14.8557 1.40323 15.7434C2.1228 14.864 2.9934 14.0792 3.98666 13.4144V13.4144ZM5.38044 12.8884C5.36722 12.897 4.66813 13.3527 3.82216 14.0714C2.97767 14.7901 1.99365 15.7668 1.34302 16.7733C1.99218 15.7705 3.01438 14.8148 3.85594 14.0973C4.69897 13.3811 5.36722 12.897 5.38044 12.8884V12.8884ZM4.86052 13.7367C4.84877 13.7478 4.22311 14.2862 3.49318 15.037C2.76324 15.7866 1.93343 16.7424 1.40323 17.5191C1.93196 16.7449 2.81905 15.8212 3.54752 15.0728C4.27599 14.3245 4.84877 13.7478 4.86052 13.7367V13.7367ZM5.35107 13.8145C5.33638 13.8293 4.55504 14.5443 3.7032 15.4964C2.85136 16.4485 1.9349 17.6303 1.49576 18.4984C1.93196 17.6352 2.9292 16.4905 3.7781 15.5396C4.29602 14.9605 4.82036 14.3854 5.35107 13.8145V13.8145ZM5.53465 14.2776C5.5185 14.2949 4.71366 15.1395 3.84272 16.2163C2.97326 17.2931 2.04211 18.5947 1.61766 19.4492C2.03918 18.5996 3.05257 17.3314 3.92056 16.2571C4.79003 15.184 5.5185 14.2949 5.53465 14.2776V14.2776ZM5.19685 15.4347C5.1851 15.4519 4.51832 16.2966 3.78251 17.3265C3.09029 18.2881 2.43973 19.2705 1.83209 20.2717C2.24039 19.5727 3.10544 18.386 3.84126 17.3561C4.57707 16.3275 5.1851 15.4519 5.19685 15.4347V15.4347ZM5.38044 15.9755L3.61655 18.5774L1.89378 21.1978L3.65767 18.5972L5.38044 15.9755V15.9755ZM4.02044 19.2158C4.63875 18.2872 5.14986 17.4302 5.15867 17.4142C5.14839 17.4302 4.5991 18.2687 3.98225 19.1936C3.36393 20.1198 2.68393 21.1385 2.35201 21.4831C2.6854 21.1373 3.40212 20.142 4.02044 19.2158V19.2158ZM5.92385 17.1301C5.91357 17.1474 5.40688 18.0427 4.70778 19.1627C4.00869 20.2828 3.1216 21.635 2.29032 22.5364C3.12307 21.6337 4.04834 20.3013 4.74744 19.18C5.448 18.0588 5.91357 17.1474 5.92385 17.1301ZM6.17647 17.6735C6.16472 17.6969 5.53465 18.8725 4.91046 20.4618C4.2848 22.0523 3.66648 24.043 3.54458 25.6742C3.66648 24.0504 4.35236 22.0647 4.97655 20.4791C5.59927 18.8935 6.16472 17.6969 6.17647 17.6735ZM6.02372 18.8824C6.01491 18.9071 5.55375 20.0259 5.09992 21.3262C4.6461 22.6253 4.20255 24.0985 4.09534 24.7987C4.20255 24.101 4.71366 22.6377 5.16601 21.3398L6.02372 18.8824V18.8824ZM5.65655 20.8385L5.09845 22.713L4.58588 24.5937L5.14398 22.7204L5.65655 20.8385V20.8385ZM6.26018 19.7826L5.59046 22.3574C5.24826 23.6663 4.8899 25.0494 4.73862 25.342C4.8899 25.0481 5.28204 23.7157 5.61984 22.424C5.9591 21.1311 6.23522 19.8839 6.26018 19.7826ZM6.84178 19.1899C6.83444 19.2158 6.49811 20.4359 6.12066 21.7868C5.74321 23.1353 5.33197 24.6135 5.1058 25.1346C5.33344 24.6122 5.78727 23.1452 6.16619 21.7955C6.54364 20.4458 6.83444 19.2158 6.84178 19.1899V19.1899ZM6.62295 21.588C6.32627 22.8241 5.98995 24.1887 5.74761 24.6974C5.98995 24.1874 6.37034 22.834 6.66701 21.5967C6.96515 20.3581 7.17371 19.2381 7.17811 19.2158C7.17371 19.2381 6.92109 20.3507 6.62295 21.588ZM7.00334 21.919C7.15608 21.6498 7.34114 20.9669 7.47038 20.3309C7.59816 19.6937 7.65984 19.1096 7.66719 19.0627C7.66572 19.0738 7.5585 19.653 7.42926 20.2964C7.30001 20.9373 7.15315 21.6522 7.00334 21.919ZM20.8252 2.14496C20.5035 2.0153 20.1305 1.92515 19.5606 1.83624L19.5489 1.9375C19.5724 1.9375 19.6003 1.94244 19.6267 1.95109C20.1114 2.00418 20.6372 2.23017 20.7738 2.29315L20.8252 2.14496V2.14496ZM19.6546 2.47961L19.9674 2.55247C20.1569 1.83254 19.7868 2.29808 19.6546 2.47961ZM19.6003 1.95973C19.5753 1.9574 19.5503 1.95493 19.5254 1.95232L19.4769 2.43886L19.6341 2.47467C19.7427 2.15978 19.6913 1.99307 19.6003 1.95973Z" fill="url(#paint9_linear_1106_450)"/>
<path d="M20.3653 2.65248L20.6326 2.71299L20.6869 2.55739C20.753 1.97083 20.4226 2.55245 20.3653 2.65248V2.65248ZM19.9761 2.55986L20.3433 2.64507C20.5239 1.76213 20.0187 2.49812 19.9761 2.55986ZM18.8599 3.00318C19.1889 2.91551 19.0405 2.65124 18.8364 2.66853C12.2831 3.84783 9.58807 7.15853 8.4939 9.41588L8.57467 9.29733C9.24455 8.07155 10.1867 6.96462 11.3505 6.03603C13.2745 4.50479 15.8006 3.549 18.8599 3.00318Z" fill="url(#paint10_linear_1106_450)"/>
<path d="M18.8893 1.86345C17.403 2.07091 12.8971 2.96989 9.71442 6.48434C8.18111 8.17859 7.24409 9.99261 6.92685 11.8733C6.6992 13.2292 6.82257 14.5999 7.26318 15.6619C7.27493 15.6743 7.28668 15.6891 7.29402 15.7064C7.2999 15.7224 7.39242 15.7521 7.49817 15.7261C7.5907 15.7027 7.61126 15.6631 7.61273 15.6273C7.2338 14.6382 7.23234 13.7923 7.23234 13.249C7.23234 13.1428 7.24409 12.3129 7.61126 11.225C7.89774 9.96625 8.46108 8.76348 9.27234 7.67846C10.1844 6.45746 11.3815 5.40471 12.7913 4.58387C14.4891 3.58609 16.5423 2.87234 18.8952 2.45989C19.2359 2.40432 19.1126 1.85233 18.8893 1.86345V1.86345ZM19.5341 2.68834C19.5341 2.68834 19.4254 2.66117 19.4107 2.73897C19.3931 2.81553 19.1963 5.13092 19.1963 5.13092L19.5341 2.68834V2.68834ZM19.6853 2.71304L19.3637 5.02843C19.3637 5.02843 19.8219 2.89333 19.8219 2.7649C19.8234 2.72662 19.7456 2.71304 19.6853 2.71304Z" fill="url(#paint11_linear_1106_450)"/>
<defs>
<linearGradient id="paint0_linear_1106_450" x1="18.7464" y1="3.10571" x2="18.7464" y2="11.9869" gradientUnits="userSpaceOnUse">
<stop stop-color="white"/>
<stop offset="1" stop-color="white" stop-opacity="0.65"/>
</linearGradient>
<linearGradient id="paint1_linear_1106_450" x1="18.8489" y1="5.71497" x2="18.8489" y2="20.9088" gradientUnits="userSpaceOnUse">
<stop stop-color="white"/>
<stop offset="1" stop-color="white" stop-opacity="0.65"/>
</linearGradient>
<linearGradient id="paint2_linear_1106_450" x1="21.6995" y1="11.9064" x2="21.6995" y2="21.9647" gradientUnits="userSpaceOnUse">
<stop stop-color="white"/>
<stop offset="1" stop-color="white" stop-opacity="0.65"/>
</linearGradient>
<linearGradient id="paint3_linear_1106_450" x1="19.2529" y1="1.51758" x2="19.2529" y2="31.5619" gradientUnits="userSpaceOnUse">
<stop stop-color="white"/>
<stop offset="1" stop-color="white" stop-opacity="0.65"/>
</linearGradient>
<linearGradient id="paint4_linear_1106_450" x1="14.3788" y1="13.8418" x2="14.3788" y2="17.8784" gradientUnits="userSpaceOnUse">
<stop stop-color="white"/>
<stop offset="1" stop-color="white" stop-opacity="0.65"/>
</linearGradient>
<linearGradient id="paint5_linear_1106_450" x1="16.2846" y1="17.1697" x2="16.2846" y2="26.798" gradientUnits="userSpaceOnUse">
<stop stop-color="white"/>
<stop offset="1" stop-color="white" stop-opacity="0.65"/>
</linearGradient>
<linearGradient id="paint6_linear_1106_450" x1="19.7566" y1="26.4364" x2="19.7566" y2="33.7973" gradientUnits="userSpaceOnUse">
<stop stop-color="white"/>
<stop offset="1" stop-color="white" stop-opacity="0.65"/>
</linearGradient>
<linearGradient id="paint7_linear_1106_450" x1="18.1219" y1="26.0471" x2="18.1219" y2="33.9787" gradientUnits="userSpaceOnUse">
<stop stop-color="white"/>
<stop offset="1" stop-color="white" stop-opacity="0.65"/>
</linearGradient>
<linearGradient id="paint8_linear_1106_450" x1="11.8306" y1="12.1216" x2="11.8306" y2="15.478" gradientUnits="userSpaceOnUse">
<stop stop-color="white"/>
<stop offset="1" stop-color="white" stop-opacity="0.65"/>
</linearGradient>
<linearGradient id="paint9_linear_1106_450" x1="11.2434" y1="1.02246" x2="11.2434" y2="25.6742" gradientUnits="userSpaceOnUse">
<stop stop-color="white"/>
<stop offset="1" stop-color="white" stop-opacity="0.65"/>
</linearGradient>
<linearGradient id="paint10_linear_1106_450" x1="14.5948" y1="2.21375" x2="14.5948" y2="9.41588" gradientUnits="userSpaceOnUse">
<stop stop-color="white"/>
<stop offset="1" stop-color="white" stop-opacity="0.65"/>
</linearGradient>
<linearGradient id="paint11_linear_1106_450" x1="13.3184" y1="1.86328" x2="13.3184" y2="15.7364" gradientUnits="userSpaceOnUse">
<stop stop-color="white"/>
<stop offset="1" stop-color="white" stop-opacity="0.65"/>
</linearGradient>
</defs>
</svg>
