<svg width="92" height="16" viewBox="0 0 92 16" fill="none" xmlns="http://www.w3.org/2000/svg">
<path fill-rule="evenodd" clip-rule="evenodd" d="M0 0.422198H4.00036C4.74634 0.422198 5.49183 0.487999 6.16946 0.586705C9.6948 1.07976 12.4746 2.88794 12.4746 7.68688C12.4746 12.4534 9.6948 14.2935 6.16946 14.7537C5.49183 14.8524 4.74585 14.8848 4.00036 14.8848H0V0.422198ZM90.7121 2.62425C91.254 2.62425 91.6612 2.2299 91.6612 1.63814C91.6612 1.04686 91.254 0.619131 90.7121 0.619131C90.1692 0.619131 89.7621 1.04638 89.7621 1.63814C89.7621 2.2299 90.1692 2.62425 90.7121 2.62425ZM90.7121 0.389296C90.8813 0.389233 91.0488 0.421492 91.205 0.48423C91.3613 0.546968 91.5033 0.638956 91.6229 0.754934C91.7425 0.870913 91.8374 1.00861 91.9021 1.16015C91.9668 1.3117 92.0001 1.47412 92 1.63814C92.0001 1.8022 91.9669 1.96467 91.9022 2.11627C91.8376 2.26788 91.7427 2.40563 91.6231 2.52166C91.5035 2.63769 91.3615 2.72972 91.2052 2.79249C91.0488 2.85525 90.8813 2.88753 90.7121 2.88747C90.543 2.88747 90.3755 2.85516 90.2192 2.79238C90.0629 2.72961 89.9209 2.63761 89.8013 2.52162C89.6816 2.40563 89.5868 2.26793 89.522 2.11638C89.4573 1.96484 89.424 1.80241 89.424 1.63838C89.424 1.47435 89.4573 1.31192 89.522 1.16038C89.5868 1.00883 89.6816 0.87113 89.8013 0.755142C89.9209 0.639153 90.0629 0.547148 90.2192 0.484375C90.3755 0.421603 90.543 0.389296 90.7121 0.389296ZM90.7121 1.83555L90.6438 1.73685H90.4746V2.32861H90.2027V0.915251H90.779C91.1178 0.915251 91.3219 1.04686 91.3219 1.3425C91.3219 1.57234 91.1517 1.70395 90.9147 1.73685L91.3219 2.32861H91.0165L90.7121 1.83555ZM90.7121 1.11266H90.7456C90.8808 1.11266 91.0165 1.14557 91.0165 1.31008C91.0165 1.50749 90.8813 1.53991 90.7456 1.53991H90.4751V1.11266H90.7121ZM81.2883 6.56869C82.407 6.43708 83.3216 5.97692 83.3216 4.59647C83.3216 3.28182 82.4075 2.91989 81.2883 2.75586H79.2539V6.63497H80.203C80.5762 6.63497 80.949 6.60159 81.2883 6.56869ZM81.2883 0.4551C83.9324 0.553806 86.3729 1.07976 86.3729 4.36663C86.3729 6.07611 85.2542 7.48946 83.39 7.7193C84.1699 7.81801 84.6444 8.57428 84.9154 9.23184L87.2551 14.8848H84.0003L82.2378 10.3491C81.9669 9.69152 81.7299 9.29669 81.2888 9.06686C81.0517 8.93573 80.679 8.86944 80.2035 8.86944H79.2544V14.8848H76.3393V0.422198H79.4914C80.0673 0.422198 80.7119 0.422198 81.2883 0.4551ZM54.1355 4.76098C54.4743 5.61548 54.6434 6.56916 54.6434 7.65398C54.6434 8.67299 54.4743 9.65909 54.1355 10.5465C53.0846 13.3394 50.5423 15.148 47.0514 15.148C42.3734 15.148 39.3899 12.0581 39.3899 7.6535C39.3899 3.21553 42.4407 0.191883 47.0514 0.191883C50.5423 0.191883 53.0846 1.96716 54.1355 4.76098ZM54.1355 1.70395L59.2885 14.8848H60.3728L66.1016 0.422198H63.0504L60 8.04785L56.7462 0.422198H53.6275L54.1355 1.70395ZM66.8476 0.422198H75.525V2.75586H69.7961V6.30594H75.016V8.54042H69.7966V12.6169H75.5594V14.8848H66.8481L66.8476 0.422198ZM6.16946 2.98617C5.66099 2.82166 5.1186 2.75586 4.57669 2.75586H2.91557V12.6169H4.57669C5.11909 12.6169 5.66149 12.5182 6.16946 12.3542C7.9663 11.7291 9.42384 10.1188 9.42384 7.6864C9.42434 5.25403 7.9663 3.57746 6.16946 2.98617ZM13.6273 0.422198H16.5763V14.8848H13.6273V0.422198ZM26.0341 4.26792C25.0171 3.64326 23.9328 3.0186 22.7802 2.88747C21.7293 2.75586 20.6106 3.0515 20.6106 4.49776C20.6106 6.99593 27.0515 5.94402 27.0515 10.7763C27.0515 13.9316 24.4752 15.4766 21.5262 15.148C19.933 14.983 19.0178 14.5229 17.7634 13.7018V10.743C18.7469 11.2694 20.2039 12.2879 21.3566 12.4853C22.611 12.6827 23.9668 12.3203 23.9668 11.0062C23.9668 8.21236 17.5603 9.3625 17.5603 4.59599C17.5603 1.37493 20.0687 0.191406 22.645 0.191406C23.9333 0.191406 25.0516 0.651556 26.0346 1.50606L26.0341 4.26792ZM38.644 13.4385C37.898 14.3598 36.1355 14.8848 34.949 14.9835C30.3728 15.2796 27.322 12.8144 27.322 7.91671C27.322 2.98617 30 0.0936538 34.949 0.35687C35.932 0.389772 37.5252 0.718314 38.5761 1.57281V4.3342C37.3216 3.57841 36.0338 3.05246 34.949 3.01955C31.9321 2.92085 30.3728 4.76145 30.3728 7.71978C30.3728 10.6786 31.8303 12.3213 34.949 12.1902C36.169 12.1577 37.9998 11.2041 38.644 10.6786V13.4385Z" fill="url(#paint0_linear_1106_413)"/>
<defs>
<linearGradient id="paint0_linear_1106_413" x1="46" y1="0.191406" x2="46" y2="15.1914" gradientUnits="userSpaceOnUse">
<stop stop-color="white"/>
<stop offset="1" stop-color="white" stop-opacity="0.75"/>
</linearGradient>
</defs>
</svg>
