<svg width="31" height="31" viewBox="0 0 31 31" fill="none" xmlns="http://www.w3.org/2000/svg">
<path d="M22.5635 2.5477C22.4635 2.59224 21.8908 3.3227 20.9271 4.62328C20.5998 5.06868 20.5635 5.30029 20.7817 5.59425C20.8635 5.71006 20.9089 5.82586 20.8817 5.84368C20.8544 5.8704 20.3726 5.83477 19.7998 5.76351C18.9635 5.65661 18.718 5.6477 18.4908 5.74569C18.2453 5.84368 17.8635 6.29799 16.6817 7.93707C15.6998 9.28219 13.5544 12.0971 13.4635 12.1506C13.418 12.1862 12.9362 11.9368 12.3908 11.6161C11.8544 11.2865 10.9998 10.7787 10.4998 10.4848C9.99984 10.1819 9.40894 9.82558 9.19075 9.69196C8.96348 9.55834 8.69984 9.44253 8.59075 9.44253C8.03621 9.44253 7.87257 10.1106 8.32712 10.467C8.55439 10.6451 8.57257 10.6897 8.51803 11.1707C8.49075 11.4557 8.4453 11.7141 8.40894 11.7408C8.38166 11.7675 8.09984 11.6606 7.79075 11.5092C7.15439 11.1885 7.02712 11.1707 6.59075 11.3489C6.21803 11.5003 5.90894 11.9546 5.90894 12.3466C5.90894 12.8543 5.93621 12.8721 8.85439 14.6537C10.2726 15.5178 10.5544 15.6247 11.3635 15.6247C12.118 15.6247 12.5817 15.4644 13.2726 14.9744C13.5817 14.7606 13.7544 14.6983 14.0817 14.6983C14.3089 14.6983 14.5817 14.7606 14.6726 14.8319C14.9635 15.0457 15.3089 14.9833 15.9817 14.6092C16.3271 14.4132 16.6635 14.2529 16.7362 14.2529C16.8089 14.2529 17.4817 14.6092 18.2271 15.0546C18.9817 15.4911 19.6544 15.8563 19.7453 15.8563C19.8271 15.8563 19.9726 15.7227 20.0726 15.5624C20.1817 15.4109 20.5544 14.8943 20.8998 14.431C21.2544 13.9678 21.8362 13.2017 22.1817 12.7385C22.5271 12.2753 23.0998 11.5092 23.4544 11.046C26.0635 7.58966 26.1817 7.4204 26.1817 7.16207C26.1817 6.8592 25.8817 6.71667 25.0089 6.60086C24.5817 6.54742 24.2089 6.45834 24.1726 6.39598C24.0998 6.28017 24.0817 6.3069 25.3544 4.63219C25.8544 3.97299 26.2726 3.35834 26.2726 3.27816C26.2726 3.03765 26.0362 2.95747 24.6726 2.7615C23.118 2.52098 22.718 2.48535 22.5635 2.5477Z" fill="url(#paint0_linear_1109_238)"/>
<path d="M8 15.402C8 15.5979 8.07273 15.8296 8.17273 15.9543C8.26364 16.0701 8.47273 16.3997 8.63636 16.6847C8.92727 17.1925 8.93636 17.2192 8.82727 17.6646C8.5 18.9652 8.37273 19.6244 8.41818 19.7046C8.54545 19.9094 10.4909 21.0229 10.7182 21.0229C10.7636 21.0229 11.1 20.7468 11.4636 20.4172C12.6364 19.3571 12.5455 19.4017 13.5182 19.4729C14.3364 19.5264 14.9091 19.4373 14.9091 19.2324C14.9091 19.1968 14.2636 18.7781 13.4818 18.2971C12.6909 17.825 11.8 17.2816 11.5 17.1034C9.51818 15.8919 8.10909 15.0546 8.05455 15.0546C8.02727 15.0546 8 15.206 8 15.402Z" fill="url(#paint1_linear_1109_238)"/>
<path d="M7.43629 20.4529C7.18174 20.5776 6.90901 20.8092 6.78174 21.0052C6.55447 21.3437 6.47265 21.5931 5.8181 23.9181C5.6181 24.6486 5.30901 25.7532 5.13629 26.3678C4.79992 27.5526 4.76356 27.7486 4.90901 27.8376C4.99083 27.8822 9.57265 23.8112 9.93629 23.3747C10.1363 23.1164 10.3636 22.5017 10.3636 22.181C10.3636 21.8158 10.1181 21.4149 9.8181 21.2902C9.67265 21.2279 9.22719 20.9606 8.84538 20.7023C8.45447 20.4351 8.08174 20.2213 7.99992 20.2213C7.92719 20.2302 7.67265 20.3282 7.43629 20.4529Z" fill="url(#paint2_linear_1109_238)"/>
<defs>
<linearGradient id="paint0_linear_1109_238" x1="16.0908" y1="15.8563" x2="16.0908" y2="2.52071" gradientUnits="userSpaceOnUse">
<stop stop-color="white"/>
<stop offset="1" stop-color="white" stop-opacity="0.75"/>
</linearGradient>
<linearGradient id="paint1_linear_1109_238" x1="11.4545" y1="21.0229" x2="11.4545" y2="15.0546" gradientUnits="userSpaceOnUse">
<stop stop-color="white"/>
<stop offset="1" stop-color="white" stop-opacity="0.75"/>
</linearGradient>
<linearGradient id="paint2_linear_1109_238" x1="7.59584" y1="27.838" x2="7.59584" y2="20.2213" gradientUnits="userSpaceOnUse">
<stop stop-color="white"/>
<stop offset="1" stop-color="white" stop-opacity="0.75"/>
</linearGradient>
</defs>
</svg>
